<svg width="36" height="35" viewBox="0 0 36 35" fill="none" xmlns="http://www.w3.org/2000/svg">
<rect x="0.960938" width="34.6235" height="34.6235" rx="17.3118" fill="#344054"/>
<path d="M25.8018 20.4682C25.8018 23.208 24.1684 24.8413 21.4287 24.8413H20.533C20.119 24.8413 19.7803 24.5026 19.7803 24.0886V19.7456C19.7803 19.5424 19.9459 19.3693 20.1491 19.3693L21.4738 19.3467C21.5792 19.3392 21.6695 19.2639 21.6921 19.1585L21.9555 17.7209C21.9781 17.5854 21.8727 17.4575 21.7297 17.4575L20.1265 17.48C19.9157 17.48 19.7502 17.3145 19.7426 17.1112L19.7125 15.2671C19.7125 15.1467 19.8104 15.0414 19.9383 15.0414L21.7448 15.0112C21.8727 15.0112 21.9706 14.9134 21.9706 14.7854L21.9405 12.979C21.9405 12.851 21.8426 12.7532 21.7147 12.7532L19.6824 12.7833C18.433 12.8059 17.4394 13.8295 17.462 15.079L17.4996 17.1489C17.5072 17.3596 17.3416 17.5252 17.1308 17.5327L16.2276 17.5478C16.0996 17.5478 16.0018 17.6456 16.0018 17.7736L16.0244 19.2037C16.0244 19.3317 16.1222 19.4295 16.2502 19.4295L17.1534 19.4145C17.3642 19.4145 17.5297 19.58 17.5373 19.7833L17.605 24.0736C17.6125 24.4951 17.2738 24.8413 16.8523 24.8413H15.1211C12.3814 24.8413 10.748 23.208 10.748 20.4607V14.1607C10.748 11.4209 12.3814 9.7876 15.1211 9.7876H21.4287C24.1684 9.7876 25.8018 11.4209 25.8018 14.1607V20.4682Z" fill="white"/>
</svg>
