<svg width="36" height="35" viewBox="0 0 36 35" fill="none" xmlns="http://www.w3.org/2000/svg">
<rect x="0.930664" width="34.6235" height="34.6235" rx="17.3118" fill="#344054"/>
<path d="M22.0081 11.293H14.4812C12.2231 11.293 10.7178 12.7983 10.7178 15.0564V19.5725C10.7178 21.8306 12.2231 23.3359 14.4812 23.3359H22.0081C24.2661 23.3359 25.7715 21.8306 25.7715 19.5725V15.0564C25.7715 12.7983 24.2661 11.293 22.0081 11.293ZM19.6672 18.0897L17.8081 19.2037C17.0554 19.6553 16.4382 19.3091 16.4382 18.4284V16.193C16.4382 15.3123 17.0554 14.9661 17.8081 15.4177L19.6672 16.5317C20.3823 16.9682 20.3823 17.6607 19.6672 18.0897Z" fill="white"/>
</svg>
