<svg width="14" height="14" viewBox="0 0 14 14" fill="none" xmlns="http://www.w3.org/2000/svg">
<path d="M2.33268 2.3335H11.666C12.3077 2.3335 12.8327 2.8585 12.8327 3.50016V10.5002C12.8327 11.1418 12.3077 11.6668 11.666 11.6668H2.33268C1.69102 11.6668 1.16602 11.1418 1.16602 10.5002V3.50016C1.16602 2.8585 1.69102 2.3335 2.33268 2.3335Z" fill="white"/>
<path d="M12.8327 3.50016L6.99935 7.5835L1.16602 3.50016" fill="white"/>
<path d="M6.99935 7.5835L6.71262 7.99311C6.88478 8.11363 7.11392 8.11363 7.28608 7.99311L6.99935 7.5835ZM2.33268 2.8335H11.666V1.8335H2.33268V2.8335ZM11.666 2.8335C12.0315 2.8335 12.3327 3.13464 12.3327 3.50016H13.3327C13.3327 2.58235 12.5838 1.8335 11.666 1.8335V2.8335ZM12.3327 3.50016V10.5002H13.3327V3.50016H12.3327ZM12.3327 10.5002C12.3327 10.8657 12.0315 11.1668 11.666 11.1668V12.1668C12.5838 12.1668 13.3327 11.418 13.3327 10.5002H12.3327ZM11.666 11.1668H2.33268V12.1668H11.666V11.1668ZM2.33268 11.1668C1.96716 11.1668 1.66602 10.8657 1.66602 10.5002H0.666016C0.666016 11.418 1.41487 12.1668 2.33268 12.1668V11.1668ZM1.66602 10.5002V3.50016H0.666016V10.5002H1.66602ZM1.66602 3.50016C1.66602 3.13464 1.96716 2.8335 2.33268 2.8335V1.8335C1.41487 1.8335 0.666016 2.58235 0.666016 3.50016H1.66602ZM12.546 3.09055L6.71262 7.17388L7.28608 7.99311L13.1194 3.90978L12.546 3.09055ZM7.28608 7.17388L1.45275 3.09055L0.879284 3.90978L6.71262 7.99311L7.28608 7.17388Z" fill="#3E4357"/>
</svg>
