<svg width="36" height="35" viewBox="0 0 36 35" fill="none" xmlns="http://www.w3.org/2000/svg">
<rect x="0.445312" width="34.6235" height="34.6235" rx="17.3118" fill="#344054"/>
<path d="M18.655 12.7983H13.8378C13.6421 12.7983 13.4539 12.8059 13.2733 12.8284C11.2485 13.0016 10.2324 14.1983 10.2324 16.4037V19.4144C10.2324 22.4252 11.4367 23.0198 13.8378 23.0198H14.1389C14.3045 23.0198 14.5227 23.1327 14.6206 23.2607L15.5238 24.465C15.9227 24.9994 16.57 24.9994 16.969 24.465L17.8722 23.2607C17.9851 23.1101 18.1657 23.0198 18.3539 23.0198H18.655C20.8603 23.0198 22.0571 22.0112 22.2302 19.979C22.2528 19.7983 22.2603 19.6101 22.2603 19.4144V16.4037C22.2603 14.0026 21.056 12.7983 18.655 12.7983ZM13.6195 18.8198C13.198 18.8198 12.8668 18.4811 12.8668 18.0671C12.8668 17.6532 13.2055 17.3145 13.6195 17.3145C14.0335 17.3145 14.3722 17.6532 14.3722 18.0671C14.3722 18.4811 14.0335 18.8198 13.6195 18.8198ZM16.2464 18.8198C15.8249 18.8198 15.4937 18.4811 15.4937 18.0671C15.4937 17.6532 15.8324 17.3145 16.2464 17.3145C16.6604 17.3145 16.9991 17.6532 16.9991 18.0671C16.9991 18.4811 16.6679 18.8198 16.2464 18.8198ZM18.8808 18.8198C18.4593 18.8198 18.1281 18.4811 18.1281 18.0671C18.1281 17.6532 18.4668 17.3145 18.8808 17.3145C19.2948 17.3145 19.6335 17.6532 19.6335 18.0671C19.6335 18.4811 19.2948 18.8198 18.8808 18.8198Z" fill="white"/>
<path d="M25.2715 13.393V16.4037C25.2715 17.9091 24.8049 18.9327 23.8715 19.4972C23.6457 19.6327 23.3823 19.4521 23.3823 19.1886L23.3898 16.4037C23.3898 13.393 21.6662 11.6693 18.6554 11.6693L14.0716 11.6768C13.8081 11.6768 13.6275 11.4134 13.763 11.1876C14.3275 10.2543 15.3511 9.7876 16.849 9.7876H21.6662C24.0672 9.7876 25.2715 10.9919 25.2715 13.393Z" fill="white"/>
</svg>
