<svg width="24" height="24" viewBox="0 0 24 24" fill="none" xmlns="http://www.w3.org/2000/svg">
<path d="M12.751 6C12.751 5.58579 12.4152 5.25 12.001 5.25C11.5867 5.25 11.251 5.58579 11.251 6V10C11.251 10.4142 11.5867 10.75 12.001 10.75C12.4152 10.75 12.751 10.4142 12.751 10V6Z" fill="#F2F4F7"/>
<path fill-rule="evenodd" clip-rule="evenodd" d="M4.25102 9C4.25102 4.71979 7.72081 1.25 12.001 1.25C16.2812 1.25 19.751 4.71979 19.751 9V9.7041C19.751 10.401 19.9573 11.0824 20.3439 11.6622L21.4925 13.3851C22.8256 15.3848 21.8079 18.1028 19.4893 18.7351C18.7336 18.9412 17.9716 19.1155 17.2051 19.2581L17.2033 19.2632C16.4343 21.3151 14.3789 22.75 12.001 22.75C9.62296 22.75 7.56765 21.3151 6.79865 19.2632L6.79676 19.2581C6.03035 19.1155 5.26836 18.9412 4.51274 18.7351C2.19415 18.1028 1.17644 15.3848 2.50954 13.3851L3.65814 11.6622C4.04473 11.0824 4.25102 10.401 4.25102 9.7041V9ZM8.62447 19.5369C10.8674 19.8049 13.1345 19.805 15.3774 19.537C14.6665 20.5585 13.4299 21.25 12.001 21.25C10.572 21.25 9.33542 20.5585 8.62447 19.5369ZM12.001 2.75C8.54924 2.75 5.75102 5.54822 5.75102 9V9.7041C5.75102 10.6972 5.45707 11.668 4.90622 12.4943L3.75762 14.2172C2.99244 15.3649 3.57659 16.925 4.90742 17.288C9.55167 18.5546 14.4504 18.5546 19.0946 17.288C20.4254 16.925 21.0096 15.3649 20.2444 14.2172L19.0958 12.4943C18.545 11.668 18.251 10.6972 18.251 9.7041V9C18.251 5.54822 15.4528 2.75 12.001 2.75Z" fill="#F2F4F7"/>
<circle cx="21" cy="3" r="3" fill="#D92D20"/>
</svg>
