<svg width="70" height="70" viewBox="0 0 70 70" fill="none" xmlns="http://www.w3.org/2000/svg">
<path d="M46.2855 53.7991L41.5152 51.0248L36.4165 41.9814L41.1858 44.7567L46.2855 53.7991Z" fill="#06543C"/>
<path d="M46.2851 54.2114C46.2142 54.2114 46.1424 54.1933 46.078 54.1557L41.3085 51.3806C41.2451 51.3439 41.1928 51.2906 41.1567 51.2268L36.0573 42.1837C35.9664 42.0219 35.9945 41.8193 36.1272 41.6886C36.2589 41.5584 36.4625 41.5313 36.6233 41.6258L41.3929 44.4004C41.4562 44.4371 41.5085 44.4903 41.5447 44.5542L46.644 53.5977C46.735 53.7596 46.7068 53.9621 46.5741 54.0928C46.4952 54.1707 46.3907 54.2114 46.2851 54.2114ZM41.8191 50.7251L45.1818 52.6814L40.8822 45.0558L37.5195 43.1L41.8191 50.7251Z" fill="#06543C"/>
<path d="M41.1858 44.7568L36.4165 41.9815L42.5219 38.4526L47.2922 41.2269L41.1858 44.7568Z" fill="white"/>
<path d="M41.1861 45.1677C41.1147 45.1677 41.0429 45.1491 40.979 45.112L36.2095 42.3374C36.0828 42.2635 36.0044 42.1278 36.0049 41.981C36.0049 41.8342 36.0833 41.6985 36.2105 41.6251L42.3166 38.0961C42.4442 38.0217 42.6021 38.0222 42.7297 38.0966L47.4993 40.8712C47.626 40.945 47.7044 41.0808 47.7039 41.2275C47.7039 41.3743 47.6255 41.51 47.4983 41.5834L41.3922 45.1125C41.3284 45.1497 41.2575 45.1677 41.1861 45.1677ZM37.2374 41.9825L41.1866 44.2801L46.4714 41.226L42.5221 38.9284L37.2374 41.9825Z" fill="#06543C"/>
<path d="M47.292 41.2268L52.3897 50.2712L46.2853 53.799L41.1855 44.7567L47.292 41.2268Z" fill="white"/>
<path d="M46.2851 54.2113C46.2489 54.2113 46.2123 54.2068 46.1766 54.1968C46.0705 54.1681 45.9805 54.0977 45.9263 54.0017L40.8269 44.9582C40.7164 44.7617 40.7842 44.5123 40.9797 44.3998L47.0858 40.8707C47.1813 40.8159 47.2944 40.8003 47.4005 40.83C47.5066 40.8586 47.5965 40.929 47.6508 41.025L52.7486 50.0691C52.8592 50.2656 52.7913 50.5149 52.5958 50.6275L46.4912 54.156C46.4279 54.1927 46.357 54.2113 46.2851 54.2113ZM41.7448 44.9089L46.4394 53.2347L51.8308 50.1183L47.1376 41.792L41.7448 44.9089Z" fill="#06543C"/>
<path d="M22.5276 67.5305L17.7583 64.7562L22.7921 49.8555L27.5624 52.6308L22.5276 67.5305Z" fill="#06543C"/>
<path d="M22.5276 67.9426C22.4558 67.9426 22.3844 67.924 22.3206 67.8868L17.551 65.1117C17.3816 65.0132 17.3052 64.8096 17.368 64.6241L22.4025 49.7238C22.4422 49.6067 22.5322 49.5132 22.6478 49.47C22.7634 49.4272 22.8926 49.4368 22.9996 49.4996L27.7692 52.2747C27.9386 52.3732 28.015 52.5768 27.9522 52.7623L22.9177 67.6626C22.878 67.7797 22.788 67.8732 22.6724 67.9164C22.6257 67.934 22.5764 67.9426 22.5276 67.9426ZM18.2557 64.5688L22.2989 66.9212L27.0645 52.8176L23.0212 50.4652L18.2557 64.5688Z" fill="#06543C"/>
<path d="M27.5623 52.6307L22.792 49.8554L28.8943 46.3286L33.6636 49.1039L27.5623 52.6307Z" fill="white"/>
<path d="M27.5621 53.0422C27.4907 53.0422 27.4188 53.0236 27.355 52.9864L22.5854 50.2113C22.4588 50.1374 22.3804 50.0017 22.3809 49.8549C22.3809 49.7082 22.4593 49.5725 22.5864 49.4991L28.6885 45.9725C28.8162 45.8981 28.974 45.8986 29.1017 45.973L33.8713 48.7481C33.9979 48.822 34.0763 48.9577 34.0758 49.1045C34.0758 49.2513 33.9974 49.387 33.8703 49.4604L27.7682 52.9869C27.7043 53.0241 27.6335 53.0422 27.5621 53.0422ZM23.6133 49.8565L27.5626 52.1545L32.8434 49.103L28.8941 46.8049L23.6133 49.8565Z" fill="#06543C"/>
<path d="M33.664 49.104L28.6322 64.0027L22.5278 67.5305L27.5627 52.6308L33.664 49.104Z" fill="white"/>
<path d="M22.5274 67.9424C22.4345 67.9424 22.342 67.9107 22.2666 67.8494C22.1339 67.7408 22.0826 67.5614 22.1374 67.399L27.1719 52.4987C27.204 52.4037 27.2694 52.3238 27.3558 52.274L33.4579 48.7475C33.6057 48.6605 33.7912 48.6751 33.9249 48.7852C34.0576 48.8938 34.1088 49.0732 34.054 49.2356L29.0221 64.1339C28.9899 64.2289 28.9246 64.3088 28.8381 64.3586L22.7335 67.8871C22.6692 67.9243 22.5983 67.9424 22.5274 67.9424ZM27.9022 52.9094L23.2673 66.6275L28.2917 63.7232L32.9246 50.0071L27.9022 52.9094Z" fill="#06543C"/>
<path d="M53.9518 5.80156C56.18 4.51369 57.9882 5.54529 57.9955 8.10845L58.0585 30.3676C58.0658 32.9236 56.2693 36.0386 54.041 37.3264L47.2919 41.2272L41.1858 44.7564L33.6638 49.1038L27.562 52.6305L20.8086 56.5337C18.5865 57.818 16.7783 56.7864 16.7711 54.2304L16.708 31.9713C16.7008 29.4081 18.4972 26.2931 20.7193 25.0089L53.9518 5.80156Z" fill="#32D583"/>
<path d="M58.0575 30.3648C58.0676 32.928 56.2661 36.0368 54.0426 37.3236L47.2896 41.2251L41.1853 44.756L33.6602 49.1001L27.5662 52.631L20.8132 56.5324C18.5898 57.8192 16.778 56.7898 16.7677 54.2266L16.7471 47.4942C17.1484 47.5148 17.55 47.5148 17.9514 47.5148C38.1795 47.5148 54.5676 35.3986 54.5676 20.4619C54.5676 15.9221 53.0544 11.6295 50.3676 7.87213L53.9499 5.803C56.1839 4.51624 57.9854 5.54565 57.9957 8.10894L58.0575 30.3648Z" fill="#32D583"/>
<path d="M19.0026 57.5C18.5482 57.5 18.125 57.3924 17.7485 57.1753C16.8569 56.6626 16.3633 55.6171 16.3597 54.2313L16.2964 31.9723C16.2889 29.2842 18.1808 26.0004 20.5136 24.6523L53.7458 5.44485C54.9592 4.74366 56.1218 4.64112 57.018 5.15683C57.9102 5.67003 58.4038 6.71804 58.4073 8.10735L58.4706 30.3664C58.4782 33.05 56.5837 36.3322 54.2474 37.6828L21.0147 56.8898C20.3135 57.2954 19.6289 57.5 19.0026 57.5ZM54.158 6.1576L20.9257 25.3651C18.8207 26.582 17.1132 29.545 17.1197 31.9703L17.1831 54.2293C17.1861 55.3085 17.5324 56.1017 18.1587 56.4615C18.791 56.8255 19.6581 56.7224 20.6025 56.1771L53.8353 36.9701C55.9438 35.7507 57.6538 32.7896 57.6473 30.3684L57.584 8.10936C57.581 7.02666 57.2341 6.23148 56.6073 5.87109C55.9775 5.50768 55.1064 5.60971 54.158 6.1576Z" fill="#06543C"/>
<path d="M11.9414 29.2001L11.9993 51.4594C12.0089 52.7272 12.4536 53.6177 13.1787 54.0435L17.945 56.8114C17.2199 56.3952 16.7753 55.5049 16.7753 54.2274L16.7075 31.9681C16.7033 30.8577 17.0521 29.6515 17.6134 28.5296L12.8494 25.7534C12.2868 26.8786 11.9372 28.0884 11.9414 29.2001Z" fill="#06543C"/>
<path d="M17.9445 57.2231C17.8752 57.2231 17.8048 57.2056 17.74 57.1684C17.7395 57.1684 17.739 57.1679 17.7385 57.1674C17.7334 57.1643 17.7274 57.1613 17.7219 57.1583L12.9724 54.3993C12.0898 53.8816 11.5987 52.8386 11.5876 51.4624L11.5298 29.2013C11.5258 28.0774 11.855 26.8218 12.4813 25.5692C12.5326 25.4677 12.6231 25.3918 12.7321 25.3591C12.8422 25.325 12.9588 25.341 13.0568 25.3978L17.8209 28.1739C18.0089 28.2835 18.0793 28.5198 17.9822 28.7143C17.4143 29.8492 17.1157 30.9737 17.1192 31.9669L17.1871 54.2264C17.1871 55.2995 17.5243 56.0867 18.1371 56.4471L18.1516 56.4556C18.3482 56.5692 18.415 56.821 18.3014 57.0176C18.2255 57.1493 18.0868 57.2231 17.9445 57.2231ZM13.0297 26.3353C12.5829 27.3365 12.3501 28.3192 12.3531 29.1988L12.411 51.4583C12.4195 52.531 12.7663 53.3236 13.3876 53.6886L16.5286 55.5127C16.42 55.1286 16.3637 54.6979 16.3637 54.2274L16.2959 31.9694C16.2919 30.953 16.5618 29.8276 17.0785 28.6947L13.0297 26.3353Z" fill="#06543C"/>
<path d="M52.0519 2.7406C51.3173 2.31476 50.3022 2.38252 49.1806 3.03092L15.9531 22.232C14.6934 22.9612 13.5843 24.283 12.8491 25.7534L17.6131 28.5296C18.3483 27.0601 19.4583 25.7395 20.7192 25.0096L53.9469 5.79881C55.0683 5.1504 56.0834 5.09233 56.8182 5.51817L52.0519 2.7406Z" fill="#06543C"/>
<path d="M17.6134 28.9414C17.5411 28.9414 17.4697 28.9223 17.4064 28.8856L12.6423 26.1095C12.4543 25.9999 12.384 25.7637 12.481 25.5696C13.2867 23.9577 14.477 22.6111 15.7471 21.8757L48.9748 2.67478C50.1967 1.96756 51.3629 1.86402 52.2586 2.38425L57.0256 5.16236C57.2222 5.27696 57.2885 5.52879 57.1744 5.72532C57.0598 5.92034 56.81 5.9887 56.612 5.8746C55.9771 5.50617 55.1035 5.60519 54.153 6.15508L20.9254 25.3661C19.7899 26.0235 18.7167 27.2439 17.9819 28.7137C17.9306 28.8157 17.8401 28.8916 17.7311 28.9243C17.6924 28.9358 17.6532 28.9414 17.6134 28.9414ZM13.3968 25.5963L17.4496 27.9577C18.2448 26.5201 19.3451 25.3294 20.5132 24.6533L53.7409 5.44233C54.1651 5.19704 54.5838 5.02514 54.9869 4.92763L51.8454 3.097C51.2156 2.73058 50.3415 2.83563 49.387 3.38753L16.1593 22.5885C15.1143 23.1937 14.1216 24.2779 13.3968 25.5963Z" fill="#06543C"/>
<path d="M36.147 22.6038L36.1775 33.3516L42.6244 36.3641C41.0038 39.2275 38.7287 41.7491 36.2054 43.2059C31.2513 46.0661 27.2305 43.7684 27.2144 38.082C27.1983 32.3894 31.1929 25.464 36.147 22.6038Z" fill="#06543C"/>
<path d="M42.6265 36.3663C41.0002 39.2281 38.725 41.7501 36.2029 43.2016C35.7604 43.4589 35.3178 43.6751 34.8853 43.8501C36.1208 40.659 36.2236 36.8089 34.8853 33.0722C34.0516 30.756 32.7752 28.7486 31.2104 27.1633C32.6206 25.2692 34.3193 23.653 36.1514 22.603L36.1826 33.3501L42.6265 36.3663Z" fill="#06543C"/>
<path d="M38.5557 19.1289C43.5097 16.2686 47.5361 18.5569 47.5523 24.2557C47.5602 27.0427 46.5993 30.126 45.033 32.8893L38.5861 29.8767L38.5557 19.1289Z" fill="white"/>
<path d="M47.5571 24.2605C47.5571 27.0399 46.5998 30.1281 45.0351 32.8869L44.119 32.4546C44.9424 30.4267 45.4159 28.337 45.4159 26.3811C45.3955 21.5223 42.4822 19.1443 38.5601 20.3179V19.134C43.5116 16.2723 47.5365 18.5575 47.5571 24.2605Z" fill="#E9E9F4"/>
<path d="M32.1816 44.8522C31.2562 44.8522 30.3982 44.635 29.6387 44.1977C27.8181 43.1502 26.8108 40.9783 26.8028 38.0831C26.7857 32.27 30.8852 25.1657 35.9408 22.2473C36.0685 22.1729 36.2248 22.1734 36.3525 22.2468C36.4797 22.3202 36.5581 22.4554 36.5586 22.6027L36.5882 33.0893L42.7989 35.9911C42.9029 36.0393 42.9818 36.1293 43.0165 36.2389C43.0517 36.3479 43.0391 36.4671 42.9828 36.5671C41.2467 39.6332 38.913 42.1178 36.4113 43.5624C34.927 44.4194 33.4874 44.8522 32.1816 44.8522ZM35.7373 23.3406C31.1964 26.3268 27.6105 32.7686 27.6261 38.0811C27.6337 40.6702 28.4942 42.5888 30.0494 43.484C31.6166 44.3857 33.7297 44.1595 35.9991 42.8496C38.2711 41.5372 40.4048 39.309 42.0429 36.5465L36.0027 33.7247C35.8584 33.6573 35.7659 33.5125 35.7654 33.3527L35.7373 23.3406Z" fill="#06543C"/>
<path d="M45.0328 33.3008C44.974 33.3008 44.9146 33.2883 44.8583 33.2621L38.4115 30.2498C38.2672 30.1824 38.1747 30.0377 38.1742 29.8778L38.144 19.1298C38.1435 18.9825 38.222 18.8458 38.3496 18.7724C40.8885 17.3067 43.2941 17.0805 45.1278 18.1351C46.9483 19.1831 47.9556 21.356 47.9637 24.2548C47.9717 27.0138 47.0579 30.1523 45.3911 33.0922C45.3157 33.2249 45.1765 33.3008 45.0328 33.3008ZM38.997 29.6144L44.8593 32.3538C46.3396 29.6345 47.1474 26.7725 47.1403 24.2568C47.1328 21.6646 46.2723 19.744 44.7171 18.8488C43.1966 17.9732 41.1624 18.1597 38.9684 19.3691L38.997 29.6144Z" fill="#06543C"/>
</svg>
