<svg width="13" height="14" viewBox="0 0 13 14" fill="none" xmlns="http://www.w3.org/2000/svg">
<path fill-rule="evenodd" clip-rule="evenodd" d="M6.49942 1.17709C5.07844 1.17709 3.9265 2.32903 3.9265 3.75001C3.9265 5.17099 5.07844 6.32293 6.49942 6.32293C7.9204 6.32293 9.07234 5.17099 9.07234 3.75001C9.07234 2.32903 7.9204 1.17709 6.49942 1.17709ZM4.739 3.75001C4.739 2.77776 5.52717 1.98959 6.49942 1.98959C7.47167 1.98959 8.25984 2.77776 8.25984 3.75001C8.25984 4.72226 7.47167 5.51043 6.49942 5.51043C5.52717 5.51043 4.739 4.72226 4.739 3.75001Z" fill="#98A2B3"/>
<path fill-rule="evenodd" clip-rule="evenodd" d="M6.49942 7.13543C5.24625 7.13543 4.09167 7.42028 3.23612 7.90153C2.39331 8.37561 1.75984 9.09413 1.75984 9.97918L1.7598 10.0344C1.75919 10.6637 1.75842 11.4536 2.45123 12.0178C2.79219 12.2954 3.26918 12.4929 3.91362 12.6233C4.55985 12.7541 5.40213 12.8229 6.49942 12.8229C7.59672 12.8229 8.43899 12.7541 9.08523 12.6233C9.72966 12.4929 10.2067 12.2954 10.5476 12.0178C11.2404 11.4536 11.2397 10.6637 11.239 10.0344L11.239 9.97918C11.239 9.09413 10.6055 8.37561 9.76272 7.90153C8.90717 7.42028 7.7526 7.13543 6.49942 7.13543ZM2.57234 9.97918C2.57234 9.51803 2.90892 9.0178 3.63446 8.60968C4.34727 8.20873 5.35936 7.94793 6.49942 7.94793C7.63948 7.94793 8.65157 8.20873 9.36438 8.60968C10.0899 9.0178 10.4265 9.51803 10.4265 9.97918C10.4265 10.6876 10.4047 11.0863 10.0346 11.3877C9.83386 11.5512 9.49835 11.7107 8.92403 11.827C8.35152 11.9428 7.56879 12.0104 6.49942 12.0104C5.43005 12.0104 4.64732 11.9428 4.07481 11.827C3.5005 11.7107 3.16499 11.5512 2.96428 11.3877C2.59418 11.0863 2.57234 10.6876 2.57234 9.97918Z" fill="#98A2B3"/>
<path fill-rule="evenodd" clip-rule="evenodd" d="M6.49942 1.17709C5.07844 1.17709 3.9265 2.32903 3.9265 3.75001C3.9265 5.17099 5.07844 6.32293 6.49942 6.32293C7.9204 6.32293 9.07234 5.17099 9.07234 3.75001C9.07234 2.32903 7.9204 1.17709 6.49942 1.17709ZM4.739 3.75001C4.739 2.77776 5.52717 1.98959 6.49942 1.98959C7.47167 1.98959 8.25984 2.77776 8.25984 3.75001C8.25984 4.72226 7.47167 5.51043 6.49942 5.51043C5.52717 5.51043 4.739 4.72226 4.739 3.75001Z" stroke="#98A2B3"/>
<path fill-rule="evenodd" clip-rule="evenodd" d="M6.49942 7.13543C5.24625 7.13543 4.09167 7.42028 3.23612 7.90153C2.39331 8.37561 1.75984 9.09413 1.75984 9.97918L1.7598 10.0344C1.75919 10.6637 1.75842 11.4536 2.45123 12.0178C2.79219 12.2954 3.26918 12.4929 3.91362 12.6233C4.55985 12.7541 5.40213 12.8229 6.49942 12.8229C7.59672 12.8229 8.43899 12.7541 9.08523 12.6233C9.72966 12.4929 10.2067 12.2954 10.5476 12.0178C11.2404 11.4536 11.2397 10.6637 11.239 10.0344L11.239 9.97918C11.239 9.09413 10.6055 8.37561 9.76272 7.90153C8.90717 7.42028 7.7526 7.13543 6.49942 7.13543ZM2.57234 9.97918C2.57234 9.51803 2.90892 9.0178 3.63446 8.60968C4.34727 8.20873 5.35936 7.94793 6.49942 7.94793C7.63948 7.94793 8.65157 8.20873 9.36438 8.60968C10.0899 9.0178 10.4265 9.51803 10.4265 9.97918C10.4265 10.6876 10.4047 11.0863 10.0346 11.3877C9.83386 11.5512 9.49835 11.7107 8.92403 11.827C8.35152 11.9428 7.56879 12.0104 6.49942 12.0104C5.43005 12.0104 4.64732 11.9428 4.07481 11.827C3.5005 11.7107 3.16499 11.5512 2.96428 11.3877C2.59418 11.0863 2.57234 10.6876 2.57234 9.97918Z" stroke="#98A2B3"/>
</svg>
