<svg width="70" height="70" viewBox="0 0 70 70" fill="none" xmlns="http://www.w3.org/2000/svg">
<path d="M9.75798 19.2536C9.68441 19.2536 9.62451 19.1937 9.62451 19.1201V15.7868C9.62451 15.7132 9.68441 15.6533 9.75798 15.6533C9.83154 15.6533 9.89144 15.7132 9.89144 15.7868V19.1201C9.89144 19.1937 9.83154 19.2536 9.75798 19.2536Z" fill="#06543C"/>
<path d="M8.56266 19.6912C8.4891 19.6912 8.4292 19.6313 8.4292 19.5577V12.4535C8.4292 12.38 8.4891 12.3201 8.56266 12.3201C8.63623 12.3201 8.69613 12.38 8.69613 12.4535V19.5577C8.69613 19.6313 8.63623 19.6912 8.56266 19.6912Z" fill="#06543C"/>
<path d="M7.30534 20.2537C7.23177 20.2537 7.17188 20.1938 7.17188 20.1203V14.3703C7.17188 14.2967 7.23177 14.2368 7.30534 14.2368C7.37891 14.2368 7.4388 14.2967 7.4388 14.3703V20.1203C7.4388 20.1938 7.37891 20.2537 7.30534 20.2537Z" fill="#06543C"/>
<path d="M5.9611 20.7257C5.88753 20.7257 5.82764 20.6658 5.82764 20.5922V17.4535C5.82764 17.38 5.88753 17.3201 5.9611 17.3201C6.03467 17.3201 6.09456 17.38 6.09456 17.4535V20.5922C6.09456 20.6658 6.03467 20.7257 5.9611 20.7257Z" fill="#06543C"/>
<path d="M19.5535 11.5425C19.5509 11.5425 19.5483 11.5425 19.5457 11.5425C19.4721 11.538 19.4161 11.4748 19.4207 11.4016C19.4233 11.3531 19.4988 10.2134 20.1687 9.87879C20.5242 9.70268 20.961 9.78472 21.4701 10.1216C21.4955 10.1431 22.4682 11.0149 23.1661 10.7746C23.5203 10.6532 23.7586 10.2551 23.8744 9.59103C23.8875 9.51876 23.9506 9.46929 24.0287 9.48231C24.1017 9.495 24.1498 9.56434 24.1375 9.6366C24.0034 10.4042 23.7058 10.872 23.252 11.0269C22.4037 11.3173 21.351 10.3716 21.3067 10.3316C20.8985 10.063 20.5496 9.98621 20.2885 10.1174C19.756 10.3827 19.6869 11.4071 19.6863 11.4175C19.6824 11.4882 19.6238 11.5425 19.5535 11.5425Z" fill="#06543C"/>
<path d="M42.3367 63.9691C42.3341 63.9691 42.3315 63.9688 42.3289 63.9688C42.2553 63.9643 42.1993 63.9011 42.2039 63.8275C42.2065 63.7794 42.2826 62.6394 42.9526 62.3051C43.3074 62.1287 43.7449 62.2104 44.254 62.5476C44.28 62.5691 45.2436 63.4399 45.95 63.2006C46.3041 63.0795 46.5424 62.6811 46.6583 62.0173C46.6713 61.9451 46.7364 61.892 46.8126 61.9089C46.8855 61.9213 46.9337 61.9906 46.9213 62.0629C46.7872 62.8305 46.489 63.2983 46.0353 63.4532C45.183 63.7429 44.1349 62.7976 44.0906 62.7576C43.6824 62.4897 43.3328 62.4119 43.0717 62.5437C42.629 62.7647 42.4871 63.557 42.4695 63.8438C42.4656 63.9145 42.407 63.9691 42.3367 63.9691Z" fill="#06543C"/>
<path d="M60.3542 10.7566C60.2806 10.7566 60.2207 10.6967 60.2207 10.6232V8.61407C59.7754 8.6209 58.3874 8.63751 58.1107 8.61179C58.0378 8.60495 57.9838 8.54017 57.9903 8.46693C57.9974 8.39369 58.0482 8.339 58.1355 8.34616C58.4428 8.37481 60.3327 8.34584 60.3523 8.34551C60.3855 8.33445 60.4219 8.35886 60.448 8.38392C60.4734 8.40899 60.4877 8.44317 60.4877 8.47898V10.6232C60.4877 10.6967 60.4278 10.7566 60.3542 10.7566Z" fill="#06543C"/>
<path d="M5.63351 60.796C5.55994 60.796 5.50004 60.7361 5.50004 60.6626V58.6538C5.05408 58.6609 3.66671 58.6769 3.39002 58.6515C3.3171 58.6447 3.26306 58.5799 3.26957 58.5066C3.27674 58.4334 3.33142 58.3829 3.41476 58.3859C3.7214 58.4145 5.61202 58.3859 5.63155 58.3852C5.67192 58.3751 5.70122 58.3986 5.72726 58.4236C5.75265 58.4487 5.76697 58.4829 5.76697 58.5187V60.6626C5.76697 60.7361 5.70707 60.796 5.63351 60.796Z" fill="#06543C"/>
<path d="M9.40611 40.1137C9.33254 40.1137 9.2733 40.0541 9.27264 39.9805L9.25832 35.06C9.25442 35.0476 9.25181 35.0342 9.25181 35.0206L9.23879 29.0404C9.23163 26.4672 11.0467 23.323 13.2857 22.0313L38.9647 7.20612C39.0285 7.17063 39.1099 7.19179 39.1463 7.25494C39.1834 7.31875 39.1613 7.40045 39.0975 7.43723L13.4185 22.2624C11.2538 23.5115 9.49856 26.5518 9.50572 29.0398L9.51874 34.9805C9.52264 34.9929 9.52525 35.0062 9.52525 35.0199L9.53957 39.9799C9.53957 40.0534 9.47968 40.1133 9.40611 40.1137Z" fill="#06543C"/>
<path d="M15.0905 66.8412C15.0762 66.8412 15.0612 66.8386 15.0469 66.8337L11.5521 65.6293C10.2376 65.1761 9.34831 63.9798 9.33854 62.652V62.6136L9.2793 42.1468C9.2793 42.0733 9.33854 42.0134 9.41211 42.013C9.48568 42.013 9.54557 42.0726 9.54622 42.1462L9.60547 62.6511C9.61393 63.8649 10.431 64.961 11.6393 65.3773L14.554 66.3819C14.2083 65.8623 14.1257 65.0619 14.1257 64.0134L18.1035 29.7113L15.6836 29.5599C15.61 29.5554 15.5547 29.4919 15.5592 29.4186C15.6895 27.3112 16.3906 26.1839 18.2383 25.1117L47.7025 9.16961C47.7552 9.13934 47.8236 9.15171 47.8646 9.19761C48.3047 9.68719 48.6686 9.87795 48.9466 9.75946C49.765 9.4131 49.9512 6.53973 49.8242 4.5661L48.0651 3.54201C47.3483 3.12827 46.3874 3.22756 45.3594 3.82228L40.5534 6.5967C40.4909 6.63316 40.4089 6.61135 40.3717 6.54787C40.3346 6.48407 40.3568 6.40236 40.4206 6.36558L45.2259 3.59116C46.3398 2.94761 47.3958 2.84735 48.1986 3.31122L50.0195 4.37144C50.0579 4.39357 50.0827 4.43329 50.0853 4.47756C50.0892 4.52704 50.4102 9.42938 49.0508 10.0052C48.6758 10.1644 48.2337 9.97853 47.7376 9.45347L18.3685 25.3441C16.6549 26.3389 15.9798 27.3848 15.834 29.3021L18.2604 29.4538C18.2969 29.4561 18.3307 29.4733 18.3542 29.5013C18.3776 29.5293 18.3887 29.5661 18.3841 29.6022L14.3913 64.0287C14.3926 65.2979 14.5221 66.2279 15.1569 66.5921C15.2168 66.6263 15.2402 66.7002 15.2116 66.7627C15.1895 66.8115 15.1413 66.8412 15.0905 66.8412Z" fill="#06543C"/>
<path d="M14.6536 66.7079L12.8344 65.6492C12.1162 65.2314 11.6726 64.3465 11.6702 63.086L11.5693 29.511L20.4468 30.061L16.4564 64.4881C16.4588 65.7486 13.9377 66.29 14.6536 66.7079Z" fill="#06543C"/>
<path d="M13.405 36.5488L11.585 35.4908L51.511 12.4395L53.331 13.4975L13.405 36.5488Z" fill="#32D583"/>
<path d="M13.4048 36.5487L53.3309 13.4973L53.4149 41.093C53.4221 43.628 51.64 46.7147 49.434 47.9883L17.4942 66.4287C15.2897 67.7015 13.4959 66.6793 13.4888 64.1444L13.4048 36.5487Z" fill="#06543C"/>
<path d="M53.4148 41.0924C53.4218 43.6275 51.6402 46.7142 49.4338 47.9888L17.494 66.4292C15.2899 67.7015 13.4965 66.6804 13.4894 64.1453L13.4097 38.379C15.2687 37.5339 17.3179 37.0715 19.3554 36.825C22.3787 36.4589 25.4372 36.5269 28.4723 36.2781C30.4769 36.1138 32.8993 35.4378 33.3335 33.4754C33.5331 32.5741 33.228 31.6375 33.3078 30.7197C33.4556 29.0461 34.8899 27.7199 36.4649 27.133C38.0375 26.5486 39.7581 26.5392 41.4364 26.4429C41.8754 26.4171 42.3355 26.3772 42.7064 26.1425C43.394 25.7059 43.5396 24.7623 43.4645 23.9501C43.3378 22.5652 42.7791 21.2084 42.2979 19.8658L53.3302 13.4976L53.4148 41.0924Z" fill="#06543C"/>
<path d="M55.9771 27.6077C55.9041 27.6077 55.8442 27.5487 55.8436 27.4758L55.7837 22.2066C55.783 22.1327 55.8423 22.0725 55.9159 22.0715H55.9172C55.9901 22.0715 56.05 22.1305 56.0506 22.2034L56.1105 27.4726C56.1112 27.5465 56.0519 27.6067 55.9784 27.6077H55.9771Z" fill="#06543C"/>
<path d="M55.9103 20.2231C55.8368 20.2231 55.7775 20.1635 55.7769 20.0899L55.7593 15.156C55.7593 15.0824 55.8185 15.0225 55.8921 15.0222C55.9657 15.0222 56.0256 15.0818 56.0262 15.1554L56.0438 20.0893C56.0438 20.1628 55.9839 20.2227 55.9103 20.2231Z" fill="#06543C"/>
<path d="M24.4116 66.2272C24.3653 66.2272 24.3211 66.2031 24.2963 66.1604C24.2592 66.0966 24.2814 66.0149 24.3452 65.9781L28.9448 63.3225C29.0086 63.2867 29.09 63.3079 29.1264 63.3714C29.1635 63.4352 29.1414 63.5169 29.0776 63.5537L24.478 66.2093C24.4571 66.2213 24.4344 66.2272 24.4116 66.2272Z" fill="#06543C"/>
<path d="M30.9418 62.4567C30.8956 62.4567 30.8513 62.4326 30.8266 62.39C30.7895 62.3262 30.8116 62.2445 30.8754 62.2077L48.3631 52.111C48.4269 52.0745 48.5082 52.096 48.5447 52.1598C48.5818 52.2236 48.5597 52.3053 48.4959 52.3421L31.0082 62.4388C30.9874 62.4508 30.9646 62.4567 30.9418 62.4567Z" fill="#06543C"/>
<path d="M49.8686 51.5297C49.8224 51.5297 49.7781 51.5056 49.7534 51.463C49.7163 51.3991 49.7384 51.3174 49.8022 51.2807L52.9877 49.4415C53.0515 49.406 53.1329 49.4271 53.1694 49.4903C53.2065 49.5541 53.1844 49.6358 53.1206 49.6726L49.935 51.5118C49.9142 51.5238 49.8914 51.5297 49.8686 51.5297Z" fill="#06543C"/>
<path d="M52.1495 4.95809C52.2886 6.99427 52.1617 12.2057 49.9642 9.75675L20.5055 25.6988C18.3015 26.9711 17.8577 28.3302 17.8648 30.8629L13.4049 36.5481L11.5858 35.4918L11.5694 29.5109C11.56 26.9781 13.3439 23.8914 15.548 22.6192L47.4878 4.17878C48.5981 3.53797 49.6027 3.47929 50.3303 3.89945L52.1495 4.95809Z" fill="#06543C"/>
<path d="M49.3074 5.23648C51.5135 3.96282 53.3072 4.98503 53.3143 7.51822L53.3313 13.4973L13.4052 36.5487L13.3882 30.5696C13.381 28.0364 15.1632 24.9497 17.3677 23.6769L49.3074 5.23648Z" fill="#32D583"/>
<path d="M53.3298 13.4977L13.4046 36.5482L13.3882 30.5696C13.3835 28.9382 14.1205 27.0768 15.2379 25.6191C17.1204 25.0135 19.1391 24.7999 21.0991 24.4337C23.6483 23.9596 26.3101 23.1122 27.9485 21.0982C28.6128 20.2837 29.0705 19.3166 29.7206 18.4904C30.7464 17.1923 32.2488 16.2769 33.8754 15.9647C35.8565 15.5844 38.1944 15.9788 39.6451 14.5751C40.4924 13.7535 40.821 12.4625 41.7835 11.7747C43.1754 10.7818 45.3326 11.4438 46.6283 10.3288C47.7433 9.3711 47.5789 7.75146 47.6306 6.20459L49.3066 5.23751C51.5131 3.96292 53.3064 4.98399 53.3134 7.51908L53.3298 13.4977Z" fill="#12B76A"/>
<path d="M17.1836 27.8682C17.9143 27.4463 18.5131 27.7758 18.5155 28.6154C18.5179 29.455 17.923 30.4855 17.1922 30.9074C16.4666 31.3263 15.873 30.9821 15.8706 30.1424C15.8682 29.3028 16.458 28.2871 17.1836 27.8682Z" fill="#06543C"/>
<path d="M17.7412 27.9586C18.472 27.5367 19.0707 27.8661 19.0731 28.7057C19.0755 29.5454 18.4806 30.5759 17.7498 30.9978C17.0243 31.4167 16.4306 31.0724 16.4282 30.2328C16.4258 29.3932 17.0156 28.3775 17.7412 27.9586Z" fill="white"/>
<path d="M21.4307 25.4109C22.1614 24.9891 22.7602 25.3185 22.7626 26.1581C22.765 26.9978 22.17 28.0283 21.4393 28.4502C20.7137 28.8691 20.1201 28.5248 20.1177 27.6852C20.1153 26.8455 20.7051 25.8299 21.4307 25.4109Z" fill="#06543C"/>
<path d="M21.9883 25.5013C22.719 25.0794 23.3178 25.4088 23.3202 26.2485C23.3226 27.0881 22.7276 28.1186 21.9969 28.5405C21.2713 28.9594 20.6777 28.6151 20.6753 27.7755C20.6729 26.9359 21.2627 25.9202 21.9883 25.5013Z" fill="white"/>
<path d="M25.6777 22.9537C26.4085 22.5318 27.0073 22.8612 27.0097 23.7009C27.012 24.5405 26.4171 25.571 25.6864 25.9929C24.9608 26.4118 24.3671 26.0675 24.3648 25.2279C24.3624 24.3883 24.9522 23.3726 25.6777 22.9537Z" fill="#06543C"/>
<path d="M26.2354 23.044C26.9661 22.6221 27.5649 22.9516 27.5673 23.7912C27.5696 24.6308 26.9747 25.6613 26.244 26.0832C25.5184 26.5021 24.9248 26.1579 24.9224 25.3182C24.92 24.4786 25.5098 23.4629 26.2354 23.044Z" fill="white"/>
<path d="M33.0874 27.8196C34.4777 27.0169 35.6091 27.6617 35.6136 29.258C35.6181 30.8568 34.4941 32.8036 33.1038 33.6063C31.7135 34.409 30.5822 33.7643 30.5777 32.1655C30.5731 30.5692 31.6971 28.6223 33.0874 27.8196Z" fill="#06543C"/>
<path d="M32.9916 34.9569C36.1536 33.1313 38.7875 34.2544 39.3101 37.4241C39.4078 38.0191 38.9614 38.867 38.3871 39.1985L27.6377 45.4047C27.051 45.7434 26.6136 45.3842 26.7128 44.6612C27.2283 40.9101 29.8399 36.7765 32.9916 34.9569Z" fill="#06543C"/>
<path d="M33.9659 27.9092C35.3562 27.1065 36.4875 27.7513 36.492 29.3476C36.4965 30.9464 35.3726 32.8932 33.9823 33.6959C32.5919 34.4986 31.4606 33.8539 31.4561 32.2551C31.4515 30.6588 32.5755 28.7119 33.9659 27.9092Z" fill="#32D583"/>
<path d="M36.4921 29.3475C36.4967 30.9467 35.372 32.8926 33.9823 33.6953C32.5911 34.498 31.4602 33.854 31.4556 32.2548C31.454 31.9235 31.5018 31.5754 31.5927 31.2272C32.1551 31.2364 32.7945 31.2595 33.1273 30.8189C33.4 30.4599 33.3522 29.9022 33.6958 29.611C34.0824 29.2828 34.8097 29.4446 35.0408 28.9932C35.2657 28.5571 34.7604 28.0903 34.6956 27.6112C35.731 27.3724 36.489 28.0426 36.4921 29.3475Z" fill="#12B76A"/>
<path d="M33.87 35.0465C37.032 33.2209 39.6659 34.344 40.1885 37.5137C40.2862 38.1087 39.8398 38.9566 39.2655 39.2881L28.5162 45.4943C27.9294 45.833 27.492 45.4738 27.5912 44.7508C28.1067 40.9997 30.7183 36.8661 33.87 35.0465Z" fill="#32D583"/>
<path d="M39.2652 39.288L28.5159 45.4938C27.9289 45.8328 27.4913 45.4738 27.5915 44.7512C27.8564 42.8177 28.6792 40.7824 29.8455 39.0137C30.3015 38.9891 30.7591 38.966 31.2152 38.9413C31.6234 38.9197 32.0456 38.8935 32.4046 38.6979C33.1919 38.2696 33.3968 37.1942 34.1132 36.6534C34.6108 36.279 35.2764 36.222 35.9004 36.2297C36.2116 36.2328 36.5413 36.2451 36.8125 36.0926C37.2469 35.8476 37.3717 35.2853 37.3856 34.7876C37.3902 34.6027 37.3887 34.4132 37.3948 34.2268C38.8416 34.4903 39.8799 35.6473 40.1881 37.5131C40.2867 38.1093 39.8399 38.9567 39.2652 39.288Z" fill="#12B76A"/>
<path d="M32.8527 34.1423C32.5956 34.1423 32.3566 34.082 32.1457 33.9603C31.6385 33.669 31.3586 33.0635 31.356 32.2555C31.3514 30.6286 32.4999 28.64 33.9159 27.8226C34.6222 27.4141 35.2922 27.3513 35.8032 27.6445C36.3097 27.9362 36.5897 28.5407 36.5923 29.3473C36.5969 30.9753 35.4484 32.9649 34.0324 33.7826C33.6183 34.0215 33.2166 34.1423 32.8527 34.1423ZM35.0949 27.6631C34.7661 27.6631 34.3989 27.7748 34.0161 27.9958C32.6554 28.7813 31.5519 30.6921 31.5565 32.2549C31.5584 32.9883 31.8032 33.5326 32.2453 33.7871C32.69 34.0427 33.2896 33.9795 33.9321 33.6094C35.2928 32.8236 36.3963 30.9118 36.3918 29.348C36.3898 28.6159 36.145 28.0723 35.703 27.818C35.5233 27.7145 35.3182 27.6631 35.0949 27.6631Z" fill="white"/>
<path d="M28.097 45.7236C27.9785 45.7236 27.8685 45.6917 27.7728 45.6276C27.5384 45.4697 27.4362 45.1455 27.4928 44.7373C28.0228 40.8828 30.6836 36.7708 33.8203 34.96C35.4505 34.0179 37.0163 33.8158 38.2331 34.391C39.3119 34.9014 40.041 36.0046 40.2878 37.4974C40.3906 38.127 39.9277 39.0215 39.3158 39.3747L28.5664 45.5811C28.4017 45.6761 28.2422 45.7236 28.097 45.7236ZM33.9206 35.1331C30.8327 36.9157 28.2129 40.9665 27.6908 44.7647C27.6458 45.0892 27.7188 45.3499 27.8848 45.4616C28.0299 45.5596 28.237 45.541 28.4661 45.4079L39.2155 39.2015C39.7552 38.8903 40.1803 38.0778 40.0898 37.53C39.8548 36.1038 39.1647 35.0534 38.1471 34.5719C36.9961 34.0267 35.4928 34.2253 33.9206 35.1331Z" fill="white"/>
<path d="M17.2958 56.1192C17.2268 56.1192 17.1598 56.0831 17.1227 56.0189C17.0673 55.9232 17.0999 55.8012 17.1956 55.7458L22.9514 52.4226C23.0478 52.3663 23.1695 52.4001 23.2249 52.4958C23.2802 52.5915 23.2477 52.7136 23.152 52.7689L17.3961 56.0922C17.3642 56.1104 17.3297 56.1192 17.2958 56.1192Z" fill="#06543C"/>
<path d="M24.4091 52.012C24.3401 52.012 24.2731 51.9762 24.2359 51.9121C24.1806 51.8164 24.2132 51.6943 24.3089 51.639L34.8629 45.5456C34.9599 45.4899 35.0803 45.5231 35.1363 45.6188C35.1917 45.7145 35.1591 45.8366 35.0634 45.8919L24.5094 51.9854C24.4775 52.0036 24.443 52.012 24.4091 52.012Z" fill="#06543C"/>
<path d="M36.6103 44.9682C36.5413 44.9682 36.4742 44.9321 36.4371 44.868C36.3818 44.7723 36.4143 44.6502 36.51 44.5948L45.1064 39.6316C45.2027 39.5753 45.3245 39.6088 45.3798 39.7049C45.4352 39.8006 45.4026 39.9226 45.3069 39.978L36.7106 44.9412C36.6787 44.9594 36.6441 44.9682 36.6103 44.9682Z" fill="#06543C"/>
<path d="M46.5307 39.2403C46.4617 39.2403 46.3946 39.2042 46.3575 39.14C46.3022 39.0443 46.3347 38.9222 46.4304 38.8669L49.1355 37.3054C49.2319 37.2491 49.3536 37.2829 49.409 37.3786C49.4643 37.4743 49.4317 37.5964 49.336 37.6517L46.631 39.2133C46.5991 39.2315 46.5646 39.2403 46.5307 39.2403Z" fill="#06543C"/>
<path d="M17.2958 59.3047C17.2268 59.3047 17.1598 59.2685 17.1227 59.2044C17.0673 59.1087 17.0999 58.9866 17.1956 58.9313L43.2438 43.8925C43.3401 43.8362 43.4619 43.8701 43.5172 43.9658C43.5725 44.0615 43.54 44.1836 43.4443 44.2389L17.3961 59.2776C17.3642 59.2959 17.3297 59.3047 17.2958 59.3047Z" fill="#06543C"/>
<path d="M44.8681 43.3854C44.7991 43.3854 44.732 43.3496 44.6949 43.2855C44.6396 43.1898 44.6721 43.0677 44.7678 43.0123L49.1357 40.4909C49.232 40.4349 49.3538 40.4681 49.4091 40.5641C49.4645 40.6598 49.4319 40.7819 49.3362 40.8372L44.9684 43.3587C44.9365 43.3769 44.902 43.3854 44.8681 43.3854Z" fill="#06543C"/>
<path d="M17.2958 62.49C17.2268 62.49 17.1598 62.4542 17.1227 62.39C17.0673 62.2943 17.0999 62.1723 17.1956 62.1169L29.5862 54.9633C29.6826 54.9073 29.8043 54.9405 29.8596 55.0365C29.915 55.1322 29.8824 55.2543 29.7867 55.3096L17.3961 62.4633C17.3642 62.4815 17.3297 62.49 17.2958 62.49Z" fill="#06543C"/>
<path d="M31.8037 54.1143C31.7346 54.1143 31.6676 54.0781 31.6305 54.014C31.5751 53.9183 31.6077 53.7962 31.7034 53.7409L49.1357 43.6764C49.232 43.6208 49.3538 43.654 49.4091 43.7497C49.4645 43.8454 49.4319 43.9675 49.3362 44.0228L31.9039 54.0872C31.872 54.1055 31.8375 54.1143 31.8037 54.1143Z" fill="#06543C"/>
<path d="M17.5844 56.2947C17.5154 56.2947 17.4483 56.2586 17.4112 56.1945C17.3559 56.0988 17.3885 55.9767 17.4842 55.9214L23.24 52.5981C23.3364 52.5418 23.4581 52.5757 23.5135 52.6714C23.5688 52.7671 23.5362 52.8891 23.4405 52.9445L17.6847 56.2677C17.6528 56.2859 17.6183 56.2947 17.5844 56.2947Z" fill="white"/>
<path d="M24.6977 52.1876C24.6287 52.1876 24.5616 52.1518 24.5245 52.0877C24.4692 51.9919 24.5017 51.8699 24.5974 51.8145L35.1515 45.7211C35.2485 45.6654 35.3689 45.6987 35.4249 45.7944C35.4802 45.8901 35.4477 46.0121 35.352 46.0675L24.798 52.1609C24.7661 52.1791 24.7316 52.1876 24.6977 52.1876Z" fill="white"/>
<path d="M36.8989 45.1438C36.8299 45.1438 36.7628 45.1076 36.7257 45.0435C36.6704 44.9478 36.7029 44.8257 36.7986 44.7704L45.395 39.8072C45.4913 39.7509 45.6131 39.7844 45.6684 39.8804C45.7237 39.9761 45.6912 40.0982 45.5955 40.1535L36.9991 45.1167C36.9672 45.135 36.9327 45.1438 36.8989 45.1438Z" fill="white"/>
<path d="M46.8193 39.4158C46.7503 39.4158 46.6832 39.3797 46.6461 39.3156C46.5908 39.2199 46.6233 39.0978 46.719 39.0424L49.4241 37.4809C49.5205 37.4246 49.6422 37.4585 49.6975 37.5542C49.7529 37.6499 49.7203 37.7719 49.6246 37.8273L46.9195 39.3888C46.8876 39.407 46.8531 39.4158 46.8193 39.4158Z" fill="white"/>
<path d="M17.5844 59.4802C17.5154 59.4802 17.4483 59.4441 17.4112 59.3799C17.3559 59.2842 17.3885 59.1622 17.4842 59.1068L43.5323 44.0681C43.6287 44.0118 43.7504 44.0456 43.8058 44.1413C43.8611 44.237 43.8286 44.3591 43.7329 44.4144L17.6847 59.4532C17.6528 59.4714 17.6183 59.4802 17.5844 59.4802Z" fill="white"/>
<path d="M45.1567 43.5609C45.0877 43.5609 45.0206 43.5251 44.9835 43.461C44.9282 43.3653 44.9607 43.2432 45.0564 43.1879L49.4243 40.6664C49.5206 40.6104 49.6424 40.6436 49.6977 40.7396C49.753 40.8353 49.7205 40.9574 49.6248 41.0128L45.2569 43.5342C45.225 43.5525 45.1905 43.5609 45.1567 43.5609Z" fill="white"/>
<path d="M17.5844 62.6655C17.5154 62.6655 17.4483 62.6297 17.4112 62.5656C17.3559 62.4699 17.3885 62.3478 17.4842 62.2925L29.8748 55.1388C29.9711 55.0828 30.0929 55.116 30.1482 55.2121C30.2036 55.3078 30.171 55.4298 30.0753 55.4852L17.6847 62.6388C17.6528 62.657 17.6183 62.6655 17.5844 62.6655Z" fill="white"/>
<path d="M32.0922 54.2898C32.0232 54.2898 31.9562 54.2537 31.9191 54.1895C31.8637 54.0938 31.8963 53.9718 31.992 53.9164L49.4243 43.852C49.5206 43.7963 49.6424 43.8295 49.6977 43.9252C49.753 44.0209 49.7205 44.143 49.6248 44.1983L32.1925 54.2628C32.1606 54.281 32.1261 54.2898 32.0922 54.2898Z" fill="white"/>
<path d="M66.4926 24.2902L64.1133 22.4502L62.1473 22.7389L58.9326 28.2695L63.4953 29.2695L66.7286 26.2815L66.4926 24.2902Z" fill="#06543C"/>
<path d="M65.2513 24.1508L64.1753 23.3188L63.2866 23.4495L63.3913 24.3715L64.4593 25.1968L65.3573 25.0508L65.2513 24.1508Z" fill="#06543C"/>
<path d="M65.36 24.4196L64.2847 23.5876L63.396 23.7183L63.5007 24.6403L64.5687 25.4656L65.4667 25.3196L65.36 24.4196Z" fill="#32D583"/>
<path d="M65.4662 25.3194L64.5688 25.4656L63.5004 24.6398L63.4082 23.8267C63.4279 23.832 63.4471 23.8388 63.4664 23.8456C63.559 23.8769 63.6537 23.9117 63.7269 23.9755C63.7789 24.0229 63.8179 24.0848 63.8745 24.126C63.9862 24.2093 64.1376 24.2023 64.2754 24.184C64.4128 24.1671 64.5586 24.142 64.6845 24.2005C64.8132 24.2598 64.9152 24.4008 65.055 24.3861C65.1142 24.3796 65.1644 24.345 65.214 24.3072L65.36 24.4195L65.4662 25.3194Z" fill="#12B76A"/>
<path d="M66.7309 26.281L54.7716 41.741L52.8509 41.9743L50.4909 40.1476L50.1909 38.1943L62.1443 22.741L62.3776 24.781L64.7442 26.6076L66.7309 26.281Z" fill="#32D583"/>
<path d="M66.7285 26.2815L54.7719 41.7395L52.8525 41.9748L64.7412 26.6048L66.7285 26.2815Z" fill="#32D583"/>
<path d="M62.1476 22.7388L50.1909 38.1961L50.4909 40.1481L62.3796 24.7781L62.1476 22.7388Z" fill="#32D583"/>
<path d="M62.3788 24.7777L50.4917 40.1489L52.8538 41.9756L64.7409 26.6044L62.3788 24.7777Z" fill="#12B76A"/>
<path d="M54.7713 41.7408L51.3047 43.4274L50.4907 43.5474L48.958 44.5674L49.5573 42.8274L49.458 42.0008L50.1907 38.1941L50.4907 40.1474L52.8507 41.9741L54.7713 41.7408Z" fill="#06543C"/>
<path d="M52.8527 41.9749L50.4907 40.1482L48.958 44.5695L52.8527 41.9749Z" fill="#06543C"/>
<path d="M50.4909 40.1483L50.1909 38.1963L49.4556 41.9996L49.5609 42.8303L50.4909 40.1483Z" fill="#06543C"/>
<path d="M51.3047 43.4276L48.958 44.5676L49.458 42.001L49.5573 42.8276L50.4907 43.5476L51.3047 43.4276Z" fill="#12B76A"/>
<path d="M49.5607 42.8302L49.4553 41.9995L48.958 44.5695L49.5607 42.8302Z" fill="#32D583"/>
<path d="M50.49 43.5487L49.5607 42.8301L48.958 44.5694L50.49 43.5487Z" fill="#12B76A"/>
<path d="M51.3027 43.4282L50.49 43.5489L48.958 44.5696L51.3027 43.4282Z" fill="#32D583"/>
<path d="M54.7722 41.7395L51.3029 43.4282L50.4902 43.5488L52.8529 41.9748L54.7722 41.7395Z" fill="#06543C"/>
</svg>
