<svg width="36" height="35" viewBox="0 0 36 35" fill="none" xmlns="http://www.w3.org/2000/svg">
<rect x="0.416016" width="34.6235" height="34.6235" rx="17.3118" fill="#344054"/>
<path d="M20.8837 9.7876H14.5762C11.8365 9.7876 10.2031 11.4209 10.2031 14.1607V20.4607C10.2031 23.208 11.8365 24.8413 14.5762 24.8413H20.8762C23.616 24.8413 25.2493 23.208 25.2493 20.4682V14.1607C25.2568 11.4209 23.6235 9.7876 20.8837 9.7876ZM17.73 20.2349C16.1192 20.2349 14.8096 18.9252 14.8096 17.3145C14.8096 15.7037 16.1192 14.394 17.73 14.394C19.3407 14.394 20.6504 15.7037 20.6504 17.3145C20.6504 18.9252 19.3407 20.2349 17.73 20.2349ZM22.1859 13.4607C22.1482 13.551 22.0956 13.6338 22.0278 13.7091C21.9525 13.7768 21.8697 13.8295 21.7794 13.8672C21.6891 13.9048 21.5913 13.9274 21.4934 13.9274C21.2902 13.9274 21.102 13.8521 20.959 13.7091C20.8913 13.6338 20.8386 13.551 20.8009 13.4607C20.7633 13.3704 20.7407 13.2725 20.7407 13.1747C20.7407 13.0768 20.7633 12.979 20.8009 12.8887C20.8386 12.7908 20.8913 12.7155 20.959 12.6403C21.1321 12.4672 21.3956 12.3844 21.6364 12.4371C21.6891 12.4446 21.7343 12.4596 21.7794 12.4822C21.8246 12.4973 21.8697 12.5198 21.9149 12.55C21.9525 12.5725 21.9902 12.6102 22.0278 12.6403C22.0956 12.7155 22.1482 12.7908 22.1859 12.8887C22.2235 12.979 22.2461 13.0768 22.2461 13.1747C22.2461 13.2725 22.2235 13.3704 22.1859 13.4607Z" fill="white"/>
</svg>
