<svg width="380" height="380" viewBox="0 0 380 380" fill="none" xmlns="http://www.w3.org/2000/svg">
<circle cx="190" cy="190" r="190" fill="#ECFDF3"/>
<path d="M128.915 123.764C123.717 120.736 116.487 121.143 108.533 125.753C92.7602 134.882 79.97 156.982 80.0152 175.149C80.0152 184.188 83.2238 190.515 88.3765 193.498L75.6768 186.131C70.5241 183.149 67.3155 176.776 67.3155 167.737C67.2703 149.615 80.0152 127.47 95.833 118.341C103.787 113.776 111.017 113.324 116.215 116.352L128.915 123.764Z" fill="#06543C"/>
<path d="M137.243 142.106C137.32 160.278 124.514 182.399 108.72 191.524C100.745 196.124 93.5371 196.508 88.3236 193.479L75.6719 186.118C70.5343 183.166 67.3145 176.764 67.3145 167.754C67.2762 149.62 80.0037 127.461 95.8377 118.337C103.774 113.775 111.019 113.315 116.234 116.343L128.655 123.627C133.945 126.541 137.243 132.944 137.243 142.106Z" fill="#06543C"/>
<path d="M95.9076 196.985C92.8693 196.985 90.0492 196.263 87.5489 194.811L74.897 187.451C69.1026 184.121 65.7745 176.938 65.7745 167.754C65.7331 149.102 78.8741 126.331 95.0685 116.999C103.294 112.273 111.086 111.577 117.008 115.013L129.435 122.301C135.451 125.612 138.783 132.652 138.783 142.107C138.858 160.717 125.719 183.481 109.491 192.858C104.735 195.601 100.114 196.985 95.9076 196.985ZM108.702 115.946C105.034 115.946 100.914 117.195 96.6056 119.671C81.2672 128.509 68.8185 150.077 68.8561 167.75C68.8561 175.806 71.6198 182.014 76.4397 184.783L89.0991 192.147C94.0658 195.029 100.763 194.333 107.95 190.186C123.326 181.303 135.777 159.739 135.701 142.115V142.107C135.701 133.826 132.936 127.745 127.913 124.98L115.455 117.673C113.464 116.518 111.186 115.946 108.702 115.946Z" fill="#06543C"/>
<path d="M108.542 125.741C124.343 116.618 137.21 123.931 137.261 142.088C137.313 160.263 124.53 182.385 108.729 191.508C92.9281 200.631 80.0614 193.317 80.0099 175.142C79.9584 156.985 92.7416 134.863 108.542 125.741Z" fill="#32D583"/>
<path d="M95.8805 196.989C92.8855 196.989 90.1049 196.286 87.6403 194.867C81.7518 191.477 78.4952 184.475 78.4689 175.147C78.4162 156.53 91.561 133.766 107.77 124.404C115.945 119.686 123.709 118.971 129.635 122.384C135.52 125.77 138.775 132.765 138.801 142.085C138.855 160.714 125.711 183.485 109.499 192.843C104.726 195.597 100.091 196.989 95.8805 196.989ZM109.313 127.076C93.9559 135.944 81.5016 157.504 81.5505 175.14C81.5731 183.32 84.2822 189.377 89.1774 192.196C94.1102 195.029 100.778 194.314 107.957 190.171C123.316 181.307 135.77 159.739 135.719 142.092C135.697 133.92 132.99 127.87 128.098 125.055C123.163 122.211 116.492 122.929 109.313 127.076Z" fill="#06543C"/>
<path d="M312.294 282.543C310.665 287.322 303.412 288.443 300.093 284.954C302.852 289.173 301.731 295.421 298.063 298.984C294.013 302.843 287.817 303.827 282.362 302.664C276.906 301.554 272.064 298.614 267.464 295.485L267.401 295.421C269.97 303.34 263.531 312.782 255.253 313.268C251.51 313.522 247.831 312.169 244.278 310.815C225.279 303.71 206.343 296.595 187.406 289.426C187.396 289.426 187.375 289.426 187.364 289.416C187.216 289.627 187.058 289.828 186.899 290.008C184.71 292.471 181.021 292.82 177.489 292.355C176.633 292.292 175.829 292.175 175.036 291.985C172.456 291.435 169.94 290.822 167.424 290.092C165.838 289.659 164.305 289.173 162.771 288.612C162.581 288.612 162.465 288.559 162.275 288.496C160.562 287.883 158.839 287.206 157.189 286.529C156.755 286.35 156.386 286.223 155.962 285.98C154.176 285.239 152.463 284.446 150.75 283.59C131.18 274.085 114.496 258.321 104.314 239.004C102.115 234.764 100.085 230.229 99.5982 225.502C98.7949 217.964 101.681 210.108 99.4715 202.876C98.8582 200.973 98.0019 199.261 97.0185 197.601C95.1156 194.408 92.7258 191.532 90.7594 188.466C89.8394 187.049 88.9832 185.579 88.3699 183.983C88 183.126 87.7566 182.206 87.5769 181.223C87.5134 180.737 87.4502 180.24 87.4502 179.69C88 163.133 99.5982 143.626 113.766 135.347C117.625 133.201 121.368 131.975 124.614 131.911H124.804C125.354 131.911 125.904 131.975 126.454 132.038C126.517 132.038 126.644 132.038 126.707 132.101C131.486 132.461 136.086 134.301 140.568 136.087C154.366 141.606 168.227 147.189 180.735 155.224C201.595 168.652 217.656 188.518 238.209 202.506C255.316 214.221 275.31 221.707 290.767 235.441C294.817 239.057 298.803 243.72 298.612 249.175C298.433 253.595 293.706 257.644 289.784 256.967C296.466 260.277 302.546 264.76 307.631 270.152C310.761 273.525 313.763 278.124 312.294 282.543Z" fill="#A6F4C5"/>
<path d="M312.295 282.531C310.683 287.323 303.399 288.435 300.103 284.947C302.862 289.164 301.712 295.413 298.07 298.978C294.007 302.85 287.834 303.808 282.353 302.659C276.909 301.547 272.077 298.633 267.478 295.489L267.399 295.413C269.97 303.349 263.528 312.78 255.247 313.278C251.529 313.508 247.848 312.166 244.282 310.825C225.267 303.693 206.328 296.601 187.39 289.432C187.39 289.432 187.39 289.432 187.35 289.432C187.197 289.624 187.043 289.816 186.89 290.007C184.705 292.461 181.025 292.806 177.498 292.345C176.616 292.307 175.811 292.192 175.044 292.001C172.438 291.425 169.945 290.812 167.416 290.084C165.843 289.662 164.31 289.164 162.777 288.627C162.584 288.627 162.47 288.55 162.277 288.512C160.553 287.899 158.827 287.208 157.178 286.518C156.757 286.365 156.373 286.212 155.952 285.982C154.188 285.253 152.464 284.448 150.738 283.604C131.186 274.097 114.508 258.34 104.312 239.018C102.125 234.762 100.094 230.238 99.5962 225.484C98.7912 217.97 101.667 210.111 99.4801 202.865C98.8661 200.986 97.9863 199.261 97.0278 197.613C95.1109 194.392 92.7335 191.517 90.7773 188.45C89.8582 187.031 88.9765 185.575 88.3625 183.964C88.0181 183.121 87.7485 182.201 87.595 181.204C87.5182 180.744 87.4434 180.246 87.4434 179.709C88.0181 163.147 99.5962 143.633 113.78 135.352C114.969 134.662 116.197 134.087 117.346 133.627C94.5344 178.827 117.882 239.133 171.326 270.531C217.485 297.674 271.54 294.646 303.706 266.352C305.086 267.541 306.391 268.806 307.617 270.148C310.762 273.522 313.751 278.122 312.295 282.531Z" fill="#A6F4C5"/>
<path d="M254.32 314.843C250.531 314.843 246.934 313.477 243.73 312.258C225.069 305.278 206.463 298.287 187.855 291.243C185.603 293.591 181.95 294.49 177.288 293.881C176.435 293.824 175.549 293.693 174.675 293.482C171.92 292.895 169.396 292.27 166.995 291.571C165.456 291.153 163.947 290.679 162.438 290.133C162.186 290.096 161.993 290.032 161.851 289.979C160.019 289.328 158.275 288.64 156.604 287.955C155.94 287.688 155.587 287.541 155.192 287.315C153.551 286.649 151.807 285.844 150.059 284.967C129.905 275.181 113.169 259.107 102.949 239.721C100.827 235.631 98.5902 230.77 98.0654 225.66C97.7117 222.338 98.039 218.982 98.3551 215.738C98.784 211.359 99.1866 207.224 97.9976 203.329C97.4934 201.764 96.7597 200.187 95.693 198.389C94.6639 196.658 93.4467 194.976 92.2709 193.343C91.3039 192.004 90.3425 190.672 89.4621 189.298C88.6625 188.064 87.6447 186.397 86.9298 184.535C86.5705 183.703 86.277 182.691 86.0607 181.498C85.976 180.878 85.9102 180.313 85.9102 179.689C86.4764 162.599 98.3701 142.559 112.99 134.014C117.168 131.692 121.168 130.436 124.584 130.368C124.586 130.368 124.588 130.368 124.59 130.368C125.414 130.368 126.02 130.436 126.626 130.507C126.72 130.518 126.829 130.541 126.944 130.575C131.893 130.97 136.563 132.832 141.08 134.631C154.729 140.091 168.778 145.712 181.568 153.926C192.528 160.985 202.294 169.906 211.738 178.533C220.374 186.424 229.304 194.581 239.076 201.23C245.852 205.873 253.231 209.925 260.367 213.842C271.19 219.783 282.38 225.928 291.79 234.288C295.491 237.592 300.379 242.728 300.153 249.23C300.046 251.864 298.603 254.546 296.291 256.416C295.668 256.917 295.015 257.338 294.345 257.669C299.696 260.781 304.527 264.615 308.752 269.096C313.463 274.168 315.143 278.853 313.755 283.029C313.755 283.033 313.753 283.037 313.751 283.041C312.859 285.66 310.511 287.624 307.469 288.293C305.942 288.628 304.407 288.617 302.997 288.271C303.714 292.376 302.333 296.985 299.137 300.089C295.047 303.987 288.504 305.556 282.04 304.172C277.498 303.246 273.348 301.101 269.501 298.671C269.591 301.846 268.611 305.154 266.658 308.013C263.93 312.009 259.701 314.549 255.344 314.809C255.001 314.831 254.661 314.843 254.32 314.843ZM187.791 287.932C187.846 287.947 187.898 287.966 187.951 287.985C206.886 295.153 225.82 302.268 244.818 309.372C248.022 310.591 251.645 311.979 255.15 311.731C258.572 311.531 261.919 309.492 264.112 306.275C266.315 303.05 266.997 299.167 265.935 295.894C265.715 295.217 265.988 294.479 266.596 294.107C267.198 293.727 267.986 293.824 268.49 294.329C273.395 297.655 277.769 300.157 282.668 301.154C288.156 302.305 293.647 301.06 297 297.866C300.266 294.697 301.078 289.279 298.804 285.799C298.368 285.133 298.51 284.245 299.135 283.748C299.763 283.259 300.661 283.312 301.208 283.895C302.463 285.208 304.662 285.761 306.807 285.283C308.784 284.847 310.289 283.639 310.831 282.051C312.08 278.285 309.166 274.074 306.502 271.203C301.538 265.936 295.681 261.609 289.098 258.347C288.413 258.008 288.08 257.214 288.318 256.488C288.556 255.758 289.301 255.318 290.045 255.446C291.365 255.675 292.964 255.137 294.353 254.019C295.984 252.699 297.002 250.866 297.071 249.113C297.21 245.158 294.88 241.178 289.74 236.591C280.593 228.46 269.557 222.402 258.884 216.544C251.683 212.589 244.236 208.503 237.338 203.777C227.387 197.008 218.376 188.772 209.66 180.81C200.309 172.269 190.641 163.434 179.901 156.518C167.36 148.466 153.45 142.901 139.996 137.517C135.6 135.767 131.114 133.976 126.592 133.638C126.451 133.63 126.311 133.6 126.182 133.551C125.642 133.495 125.222 133.453 124.805 133.453C121.73 133.51 118.227 134.631 114.516 136.693C100.75 144.741 89.5242 163.656 88.9918 179.741C88.9918 180.17 89.0501 180.599 89.1046 181.021C89.2683 181.905 89.4941 182.699 89.7838 183.372C90.4216 185.028 91.3302 186.514 92.0527 187.628C92.9068 188.96 93.8362 190.247 94.7712 191.541C95.9865 193.223 97.2413 194.965 98.3438 196.812C99.5309 198.822 100.355 200.598 100.938 202.404C102.315 206.911 101.862 211.551 101.424 216.036C101.123 219.129 100.81 222.323 101.132 225.341C101.604 229.942 103.696 234.469 105.681 238.292C115.59 257.094 131.837 272.69 151.423 282.205C153.12 283.052 154.8 283.827 156.554 284.557C156.988 284.79 157.22 284.881 157.466 284.978C159.404 285.772 161.103 286.438 162.794 287.044C162.975 287.044 163.131 287.104 163.3 287.165C164.794 287.71 166.286 288.184 167.83 288.606C170.182 289.287 172.637 289.896 175.357 290.476C176.11 290.66 176.831 290.762 177.596 290.814C180.315 291.176 183.835 291.138 185.748 288.986C185.861 288.854 185.983 288.703 186.098 288.538C186.358 288.162 186.771 287.921 187.227 287.879C187.413 287.864 187.61 287.879 187.791 287.932Z" fill="#06543C"/>
<path d="M300.095 286.495C299.626 286.495 299.164 286.28 298.861 285.882C298.729 285.708 285.057 268.325 223.264 245.576C222.464 245.283 222.056 244.398 222.349 243.597C222.643 242.799 223.536 242.378 224.328 242.686C287.281 265.861 300.785 283.304 301.329 284.038C301.837 284.715 301.696 285.678 301.017 286.186C300.74 286.393 300.415 286.495 300.095 286.495ZM267.437 297C266.923 297 266.423 296.744 266.129 296.278C266.009 296.09 253.647 277.224 201.241 257.929C200.441 257.635 200.033 256.751 200.327 255.95C200.62 255.152 201.514 254.734 202.306 255.039C255.931 274.782 268.246 293.847 268.744 294.648C269.192 295.371 268.97 296.315 268.252 296.767C267.998 296.925 267.715 297 267.437 297ZM289.879 258.557C289.541 258.557 289.196 258.444 288.912 258.211C288.653 258.004 262.717 237.204 235.466 230.413C234.64 230.21 234.138 229.37 234.343 228.546C234.55 227.719 235.392 227.207 236.211 227.425C264.135 234.382 290.587 255.604 290.85 255.818C291.512 256.352 291.614 257.323 291.08 257.985C290.775 258.362 290.329 258.557 289.879 258.557Z" fill="#06543C"/>
<path d="M186.899 291.552C186.538 291.552 186.177 291.424 185.885 291.168C185.244 290.607 185.18 289.637 185.738 288.993C185.819 288.903 185.898 288.805 185.977 288.703C186.717 284.704 186.291 279.59 184.845 275.237C183.343 271.064 180.757 267.049 177.163 263.336C173.7 259.671 169.617 256.909 165.717 254.467C164.905 254.068 163.987 253.575 163.07 253.083C161.802 252.402 160.538 251.72 159.232 251.111L158.717 250.889C152.921 248.364 148.483 244.094 146.216 238.867C145.079 236.346 143.569 231.632 145.866 227.549C146.28 226.812 147.222 226.541 147.965 226.962C148.706 227.38 148.97 228.321 148.552 229.062C146.921 231.963 148.129 235.609 148.994 237.524C150.998 242.148 154.87 245.851 159.947 248.059L160.5 248.3C161.894 248.955 163.21 249.659 164.528 250.366C165.42 250.844 166.314 251.325 167.228 251.784C171.425 254.403 175.701 257.3 179.391 261.206C183.278 265.221 186.096 269.608 187.757 274.229C189.454 279.327 189.881 285.114 188.914 289.742C188.842 290.084 188.662 290.378 188.412 290.592C188.295 290.743 188.177 290.89 188.06 291.025C187.755 291.371 187.328 291.552 186.899 291.552Z" fill="#06543C"/>
<path d="M177.459 292.385C176.643 292.323 175.827 292.197 175.011 292.009C166.601 290.252 158.443 287.428 150.724 283.599C151.037 282.595 151.54 281.717 151.979 280.775C152.481 279.708 153.108 278.641 153.987 277.825C154.677 277.135 155.493 276.696 156.309 276.319C160.388 274.562 165.158 275.315 169.363 276.759C170.994 277.324 172.563 277.951 174.007 278.955C175.387 279.959 176.58 281.34 177.082 282.972C177.396 283.913 177.396 284.98 177.459 285.984C177.584 288.118 177.71 290.252 177.459 292.385Z" fill="#D1FADF"/>
<path d="M177.46 293.93C177.419 293.93 177.38 293.926 177.338 293.922C176.444 293.855 175.553 293.719 174.659 293.508C166.154 291.732 157.857 288.858 150.038 284.978C149.359 284.64 149.026 283.861 149.252 283.135C149.504 282.333 149.861 281.596 150.226 280.858L150.58 280.125C151.286 278.623 152.034 277.536 152.937 276.697C153.776 275.854 154.789 275.324 155.663 274.921C159.524 273.258 164.287 273.39 169.864 275.301C171.519 275.877 173.269 276.561 174.887 277.69C176.183 278.631 177.848 280.219 178.555 282.521C178.871 283.466 178.924 284.489 178.969 285.392L178.997 285.889C179.123 288.079 179.253 290.306 178.99 292.568C178.898 293.347 178.234 293.93 177.46 293.93ZM152.687 282.841C159.896 286.292 167.504 288.865 175.327 290.498C175.57 290.555 175.809 290.607 176.046 290.649C176.1 289.166 176.014 287.669 175.921 286.104L175.891 285.547C175.852 284.775 175.814 284.042 175.62 283.462C175.252 282.262 174.36 281.118 173.1 280.2C171.886 279.357 170.522 278.793 168.857 278.213C164.039 276.561 160.017 276.407 156.918 277.735C156.296 278.025 155.613 278.379 155.078 278.913C154.431 279.515 153.903 280.305 153.372 281.43L152.99 282.22C152.889 282.427 152.787 282.634 152.687 282.841Z" fill="#06543C"/>
<path d="M282.644 70.08L297.958 79.6379C289.441 74.3221 277.993 75.5167 266.398 81.7333C254.862 87.9181 243.179 99.0738 234.076 113.718L218.762 104.16C227.864 89.516 239.547 78.3602 251.084 72.1754C262.679 65.9589 274.126 64.7642 282.644 70.08Z" fill="#06543C"/>
<path d="M234.077 115.261C233.791 115.261 233.507 115.178 233.26 115.024L217.945 105.467C217.224 105.019 217.004 104.071 217.452 103.348C226.401 88.9489 238.088 77.3938 250.356 70.8167C262.976 64.0552 274.734 63.3253 283.46 68.7736L298.773 78.3307C299.496 78.7784 299.714 79.7304 299.265 80.4528C298.817 81.1715 297.869 81.3972 297.141 80.9457C289.393 76.1032 278.728 76.8708 267.126 83.0904C255.328 89.4154 244.055 100.583 235.386 114.531C235.17 114.881 234.824 115.126 234.425 115.22C234.31 115.246 234.193 115.261 234.077 115.261ZM220.891 103.672L233.591 111.6C242.43 97.8061 253.776 86.7515 265.67 80.3738C273.338 76.2612 280.681 74.395 287.235 74.7599L281.827 71.3849C274.077 66.5499 263.42 67.3137 251.812 73.5333C240.381 79.6627 229.445 90.3335 220.891 103.672Z" fill="#06543C"/>
<path d="M234.091 113.723C225.551 108.516 214.18 109.741 202.655 115.898C190.421 122.444 178.042 134.556 168.772 150.502C151.904 179.533 152.583 210.194 169.197 220.34L153.862 210.804C137.28 200.627 136.569 169.965 153.469 140.935C162.739 125.021 175.117 112.909 187.319 106.362C198.846 100.173 210.248 98.9497 218.756 104.156L234.091 113.723Z" fill="#06543C"/>
<path d="M169.196 221.883C168.923 221.883 168.644 221.808 168.394 221.657C168.287 221.589 168.18 221.522 168.074 221.458L153.046 212.115C135.369 201.264 134.967 169.654 152.138 140.158C161.113 124.747 173.671 111.935 186.59 105.004C199.127 98.2726 210.837 97.5013 219.562 102.844L234.906 112.413C235.625 112.864 235.847 113.809 235.401 114.531C234.961 115.25 234.015 115.475 233.288 115.039C225.53 110.302 214.91 111.099 203.381 117.255C190.927 123.919 178.798 136.32 170.104 151.277C154.162 178.714 154.025 208.913 169.726 218.854L170.012 219.031C170.733 219.479 170.955 220.427 170.509 221.149C170.219 221.619 169.713 221.883 169.196 221.883ZM206.51 102.415C200.894 102.415 194.62 104.191 188.048 107.721C175.617 114.388 163.499 126.778 154.802 141.709C138.752 169.281 138.692 199.687 154.668 209.492L159.723 212.634C151.263 198.039 153.784 173.228 167.44 149.727C176.544 134.063 188.793 121.567 201.927 114.539C209.603 110.441 216.959 108.597 223.532 108.951L217.941 105.467C214.613 103.427 210.748 102.415 206.51 102.415Z" fill="#06543C"/>
<path d="M202.639 115.909C214.174 109.725 225.564 108.506 234.076 113.718C243.178 99.0738 254.862 87.918 266.398 81.7332C278.609 75.1863 290.657 74.2092 299.291 80.5407C315.01 92.0796 312.522 124.458 294.803 153.008L236.93 246.35C234.999 249.453 232.528 251.811 230.089 253.118C227.651 254.425 225.245 254.681 223.445 253.579L169.183 220.349C152.593 210.19 151.895 179.52 168.778 150.504C178.052 134.571 190.426 122.456 202.639 115.909Z" fill="#32D583"/>
<path d="M294.805 153.009L236.94 246.337C234.994 249.457 232.527 251.802 230.092 253.119C227.657 254.436 225.256 254.693 223.443 253.576L169.174 220.359C167.183 219.145 165.443 217.636 163.924 215.862C196.265 228.757 237.862 216.133 264.51 182.832C291 149.739 294.354 106.767 275.116 78.0176C284.203 75.1534 292.728 75.7253 299.301 80.5372C315.023 92.09 312.518 124.456 294.805 153.009Z" fill="#039855"/>
<path d="M226.032 255.818C224.796 255.818 223.648 255.513 222.638 254.893L168.377 221.661C150.687 210.828 150.279 179.233 167.446 149.731C176.425 134.3 188.987 121.477 201.909 114.55C213.824 108.161 224.991 107.156 233.557 111.653C242.399 97.8362 253.76 86.759 265.669 80.3738C278.882 73.285 291.47 72.8899 300.201 79.2977C316.444 91.2215 314.647 123.956 296.111 153.821L238.238 247.164C236.227 250.392 233.591 252.989 230.814 254.475C229.149 255.37 227.525 255.818 226.032 255.818ZM203.366 117.266C190.93 123.934 178.809 136.332 170.11 151.281C154.064 178.853 154.009 209.248 169.987 219.035L224.248 252.266C225.941 253.301 228.178 252.398 229.358 251.758C231.668 250.524 233.892 248.315 235.621 245.539L293.492 152.195C310.89 124.163 313.082 92.5761 298.378 81.7811C290.642 76.1108 279.256 76.5886 267.125 83.0905C255.328 89.4154 244.055 100.583 235.386 114.531C234.938 115.253 233.997 115.475 233.271 115.031C225.526 110.287 214.906 111.084 203.366 117.266Z" fill="#06543C"/>
<path d="M160.058 171.584C159.526 171.584 159.007 171.306 158.721 170.813C158.296 170.075 158.55 169.131 159.287 168.706L216.511 135.681C217.674 134.992 219.096 134.981 220.304 135.655C221.515 136.332 222.251 137.558 222.275 138.936L222.422 148.711C222.435 149.561 221.756 150.261 220.904 150.276C220.014 150.355 219.354 149.606 219.341 148.756L219.194 138.984C219.186 138.604 218.915 138.409 218.799 138.345C218.66 138.262 218.374 138.164 218.063 138.345L160.826 171.377C160.585 171.516 160.32 171.584 160.058 171.584ZM162.536 215.644C162.004 215.644 161.484 215.366 161.198 214.873C160.773 214.136 161.027 213.191 161.765 212.766L219.877 179.241C220.614 178.823 221.559 179.072 221.982 179.805C222.407 180.543 222.153 181.487 221.416 181.912L163.304 215.437C163.061 215.577 162.798 215.644 162.536 215.644ZM156.516 196.432C155.983 196.432 155.464 196.154 155.18 195.661C154.753 194.924 155.007 193.979 155.743 193.554L204.853 165.191C205.594 164.774 206.534 165.022 206.958 165.756C207.385 166.493 207.131 167.438 206.395 167.863L157.285 196.225C157.043 196.365 156.777 196.432 156.516 196.432Z" fill="#06543C"/>
<path d="M203.735 160.991C206.848 159.194 209.349 160.68 209.359 164.216C209.37 167.794 206.884 172.119 203.772 173.916C200.677 175.702 198.14 174.277 198.13 170.699C198.12 167.164 200.64 162.778 203.735 160.991Z" fill="#06543C"/>
<path d="M201.242 176.223C200.437 176.223 199.681 176.031 199.013 175.648C197.455 174.752 196.596 172.995 196.59 170.703C196.577 166.583 199.376 161.73 202.964 159.656C204.958 158.505 206.913 158.37 208.47 159.261C210.007 160.146 210.894 161.952 210.901 164.213C210.912 168.337 208.12 173.183 204.544 175.253C203.425 175.896 202.294 176.223 201.242 176.223ZM206.235 161.767C205.743 161.767 205.146 161.955 204.506 162.328C201.876 163.844 199.662 167.678 199.671 170.696C199.675 171.825 199.995 172.656 200.55 172.976C201.116 173.3 202.01 173.157 203.001 172.581C205.62 171.068 207.827 167.238 207.819 164.22C207.816 163.088 207.492 162.256 206.933 161.937C206.738 161.824 206.503 161.767 206.235 161.767Z" fill="#06543C"/>
<path d="M223.287 172.704C226.399 170.907 228.901 172.393 228.911 175.929C228.921 179.506 226.436 183.831 223.323 185.628C220.229 187.415 217.692 185.99 217.682 182.412C217.672 178.876 220.192 174.491 223.287 172.704Z" fill="#32D583"/>
<path d="M220.792 187.936C219.987 187.936 219.229 187.744 218.561 187.357C217.007 186.461 216.147 184.708 216.142 182.417C216.128 178.293 218.928 173.439 222.516 171.369C224.512 170.214 226.466 170.083 228.022 170.974C229.559 171.859 230.445 173.665 230.453 175.926C230.464 180.05 227.67 184.9 224.094 186.966C222.975 187.609 221.844 187.936 220.792 187.936ZM225.787 173.48C225.294 173.48 224.698 173.668 224.058 174.041C221.428 175.557 219.214 179.388 219.223 182.409C219.227 183.538 219.545 184.369 220.1 184.689C220.664 185.013 221.562 184.866 222.553 184.294C225.172 182.782 227.379 178.951 227.371 175.934C227.367 174.801 227.044 173.969 226.485 173.65C226.289 173.537 226.054 173.48 225.787 173.48Z" fill="#06543C"/>
<path d="M221.116 144.482C224.228 142.685 226.73 144.172 226.74 147.707C226.75 151.285 224.265 155.61 221.153 157.407C218.058 159.194 215.521 157.768 215.511 154.191C215.501 150.655 218.021 146.269 221.116 144.482Z" fill="#32D583"/>
<path d="M218.621 159.713C217.818 159.713 217.06 159.521 216.394 159.137C214.836 158.242 213.976 156.488 213.969 154.193C213.957 150.069 216.759 145.219 220.345 143.146C222.337 141.998 224.293 141.859 225.853 142.758C227.39 143.643 228.274 145.445 228.28 147.702C228.293 151.83 225.499 156.68 221.921 158.742C220.804 159.385 219.673 159.713 218.621 159.713ZM221.885 145.817C219.257 147.334 217.043 151.168 217.05 154.185C217.054 155.314 217.374 156.146 217.929 156.466C218.495 156.789 219.389 156.646 220.38 156.071C223.003 154.562 225.208 150.731 225.198 147.71C225.195 146.581 224.873 145.75 224.314 145.426C223.757 145.106 222.871 145.249 221.885 145.817Z" fill="#06543C"/>
<path d="M269.137 114.742C268.603 114.742 268.083 114.463 267.799 113.967C267.374 113.229 267.63 112.288 268.368 111.863L306.406 89.9045C307.145 89.4869 308.09 89.7352 308.511 90.4689C308.938 91.2064 308.684 92.1508 307.949 92.576L269.903 114.535C269.66 114.674 269.397 114.742 269.137 114.742ZM284.159 128.761C283.625 128.761 283.106 128.483 282.822 127.986C282.397 127.249 282.65 126.308 283.388 125.883L308.618 111.333C309.356 110.911 310.302 111.167 310.724 111.897C311.151 112.635 310.897 113.579 310.161 114.004L284.927 128.554C284.684 128.694 284.419 128.761 284.159 128.761Z" fill="#06543C"/>
<path d="M286.057 132.764C282.945 134.561 280.443 133.075 280.433 129.539C280.423 125.962 282.908 121.637 286.02 119.84C289.115 118.053 291.652 119.478 291.662 123.056C291.672 126.592 289.152 130.978 286.057 132.764Z" fill="#06543C"/>
<path d="M283.552 135.075C282.752 135.075 281.998 134.879 281.319 134.488C279.781 133.604 278.897 131.801 278.892 129.544C278.88 125.42 281.672 120.574 285.249 118.504C287.226 117.372 289.241 117.225 290.782 118.109C292.337 119.005 293.197 120.762 293.203 123.053C293.214 127.177 290.415 132.027 286.829 134.1C285.704 134.748 284.588 135.075 283.552 135.075ZM288.537 120.611C288.039 120.611 287.437 120.803 286.791 121.176C284.172 122.688 281.966 126.519 281.973 129.536C281.977 130.665 282.299 131.497 282.856 131.82C283.416 132.14 284.302 131.997 285.286 131.429C287.914 129.913 290.129 126.079 290.121 123.061C290.117 121.932 289.798 121.101 289.243 120.781C289.045 120.668 288.806 120.611 288.537 120.611Z" fill="#06543C"/>
<path d="M266.504 121.051C263.392 122.848 260.89 121.362 260.88 117.826C260.87 114.249 263.355 109.924 266.468 108.127C269.562 106.34 272.099 107.765 272.109 111.343C272.12 114.879 269.599 119.265 266.504 121.051Z" fill="#32D583"/>
<path d="M263.999 123.366C263.199 123.366 262.447 123.17 261.77 122.782C260.233 121.898 259.346 120.092 259.339 117.831C259.328 113.707 262.119 108.861 265.696 106.791C267.675 105.659 269.686 105.516 271.227 106.396C272.785 107.292 273.644 109.049 273.65 111.34C273.663 115.46 270.864 120.314 267.276 122.387C266.149 123.038 265.036 123.366 263.999 123.366ZM268.984 108.898C268.486 108.898 267.884 109.09 267.239 109.463C264.62 110.975 262.413 114.806 262.421 117.823C262.424 118.956 262.748 119.787 263.307 120.107C263.858 120.423 264.744 120.288 265.734 119.716C268.364 118.2 270.578 114.365 270.568 111.348C270.565 110.219 270.245 109.387 269.69 109.068C269.492 108.955 269.253 108.898 268.984 108.898Z" fill="#06543C"/>
</svg>
