<svg width="70" height="70" viewBox="0 0 70 70" fill="none" xmlns="http://www.w3.org/2000/svg">
<path d="M48.9508 33.3756C50.2958 32.5991 51.3819 33.2183 51.3863 34.756L51.4108 43.4101C51.4152 44.9478 50.3361 46.8246 48.9912 47.6011L20.2241 64.2097C18.886 64.9823 17.7931 64.3595 17.7887 62.8218L17.7642 54.1677C17.7598 52.63 18.8456 50.7568 20.1838 49.9843L48.9508 33.3756Z" fill="#32D583"/>
<path d="M51.4072 43.4104C51.4177 44.948 50.3329 46.823 48.9953 47.6027L20.2214 64.2114C18.8838 64.9807 17.7887 64.359 17.7887 62.8213L17.7676 56.0284C21.2116 56.3966 25.0347 56.1755 28.9526 55.259C41.1489 52.426 49.6165 43.937 47.8367 36.312C47.6788 35.6486 47.4576 35.0165 47.1522 34.4159L48.9531 33.3735C50.2907 32.5944 51.3861 33.2156 51.3861 34.7532L51.4072 43.4104Z" fill="#E9E9F4"/>
<path d="M2.06201 45.0493L2.09364 53.6962C2.09364 54.4655 2.36748 55.0024 2.79946 55.2554L18.4942 64.38C18.0622 64.127 17.7886 63.5901 17.7886 62.8213L17.7675 54.1636C17.7621 53.3999 18.028 52.5565 18.4597 51.8052L2.76604 42.6812C2.33123 43.4356 2.06201 44.2841 2.06201 45.0493Z" fill="#06543C"/>
<path d="M18.4932 64.3788L2.7959 55.2567C2.36395 55.0055 2.09267 54.4629 2.09267 53.6996L2.0625 45.0489C2.0625 44.2856 2.33379 43.4315 2.76573 42.678L5.55879 44.3057C5.25734 45.3305 5.09667 46.395 5.09667 47.5003C5.09667 54.513 2.16708 54.6533 10.3253 54.6533C13.1384 54.6533 15.7706 53.9704 18.011 52.7945C17.8503 53.2566 17.7598 53.7192 17.7699 54.1607L17.79 62.8212C17.79 63.5949 18.0613 64.1276 18.4932 64.3788Z" fill="#06543C"/>
<path d="M34.9856 24.0802C34.5433 23.8272 33.9324 23.8586 33.2479 24.2592L4.48453 40.8684C3.81264 41.2546 3.20504 41.9201 2.76611 42.6812L18.4598 51.8052C18.8974 51.0431 19.5058 50.3751 20.1792 49.9827L48.9532 33.3735C49.6274 32.9837 50.238 32.9523 50.6806 33.2048L34.9856 24.0802Z" fill="#06543C"/>
<path d="M50.6802 33.2048C50.2377 32.9523 49.627 32.9837 48.9528 33.3735L20.1789 49.9827C19.505 50.3725 18.894 51.0462 18.4623 51.8047L2.76758 42.6796C3.20985 41.9216 3.81025 41.2582 4.48419 40.8684L8.24425 38.6987C12.3622 43.1435 10.1525 40.5459 18.5045 40.5459C29.8684 40.5459 39.3371 35.069 41.4224 27.823L50.6802 33.2048Z" fill="#06543C"/>
<path d="M19.1369 64.9553C18.8343 64.9553 18.5509 64.883 18.297 64.7372C17.7064 64.3974 17.3797 63.7178 17.3772 62.8231L17.3526 54.1686C17.348 52.4747 18.5016 50.4802 19.9784 49.6278L48.7451 33.0184C49.5297 32.564 50.2897 32.5017 50.8828 32.8445C51.4704 33.1823 51.7956 33.8609 51.7981 34.7546L51.8228 43.4091C51.8278 45.106 50.6747 47.1045 49.1975 47.958L20.4302 64.5663C19.9824 64.8246 19.5426 64.9553 19.1369 64.9553ZM49.1573 33.7322L20.39 50.3415C19.1862 51.0362 18.1724 52.7874 18.1759 54.1666L18.2005 62.8211C18.2025 63.4092 18.3825 63.8355 18.7077 64.0224C19.0359 64.2104 19.5008 64.1521 20.0181 63.8525L48.7853 47.2442C49.9896 46.5486 51.0035 44.7933 50.9994 43.4111L50.9748 34.7566C50.9728 34.1695 50.7944 33.7443 50.4717 33.5583C50.146 33.3713 49.6795 33.4306 49.1573 33.7322Z" fill="#06543C"/>
<path d="M18.4939 64.7926C18.4236 64.7926 18.3527 64.7745 18.2874 64.7363L2.59234 55.6113C2.00475 55.2665 1.68206 54.5869 1.68206 53.6962L1.65039 45.0508C1.65039 44.2395 1.91981 43.3247 2.40938 42.4752C2.46417 42.3807 2.55464 42.3114 2.6602 42.2832C2.76525 42.2571 2.87885 42.2702 2.97335 42.3254L18.6668 51.4494C18.8629 51.563 18.9297 51.8143 18.8166 52.0104C18.401 52.7342 18.1748 53.4972 18.1793 54.1607L18.2004 62.8202C18.2004 63.4083 18.3788 63.8355 18.7025 64.0255C18.8986 64.1401 18.9644 64.3914 18.8498 64.5875C18.7734 64.7192 18.6357 64.7926 18.4939 64.7926ZM2.47372 45.0478L2.50539 53.6952C2.50539 54.2823 2.68382 54.7106 3.00803 54.9006L17.4067 63.2716C17.3871 63.1288 17.3771 62.978 17.3771 62.8212L17.356 54.1647C17.3509 53.473 17.546 52.703 17.9099 51.9621L2.92962 43.2523C2.63406 43.8655 2.47422 44.4908 2.47372 45.0478Z" fill="#06543C"/>
<path d="M18.4599 52.2174C18.388 52.2174 18.3161 52.1983 18.2528 52.1611L2.55928 43.0371C2.36325 42.9235 2.2964 42.6722 2.40949 42.4752C2.90409 41.6177 3.56808 40.92 4.27932 40.5118L33.042 23.9025C33.8262 23.4431 34.5892 23.3778 35.1903 23.7236L35.1928 23.7246L50.8879 32.8486C51.0839 32.9622 51.1507 33.2135 51.0376 33.4095C50.9245 33.6055 50.6742 33.6729 50.4767 33.5623C50.1434 33.3723 49.676 33.4316 49.1593 33.7302L20.3855 50.3395C19.7964 50.6823 19.239 51.2754 18.8167 52.0103C18.7625 52.1058 18.672 52.1752 18.5664 52.2033C18.5312 52.2124 18.4956 52.2174 18.4599 52.2174ZM3.34089 42.5385L18.3206 51.2483C18.7831 50.5506 19.3596 49.9836 19.9723 49.6268L48.7471 33.0164C48.8914 32.933 49.0351 32.8636 49.1769 32.8063L34.7807 24.4373C34.4484 24.2473 33.978 24.3097 33.4562 24.6143L4.69048 41.2256C4.1984 41.5081 3.72893 41.9665 3.34089 42.5385Z" fill="#06543C"/>
<path d="M23.2645 54.1282C24.2714 53.5469 25.0808 54.0277 25.084 55.1715C25.0873 56.3289 24.2832 57.728 23.2763 58.3094C22.2751 58.8874 21.4545 58.4263 21.4512 57.2689C21.4479 56.1251 22.2633 54.7062 23.2645 54.1282ZM30.0295 50.2224C31.0364 49.6411 31.8458 50.1219 31.8491 51.2657C31.8523 52.4231 31.0483 53.8222 30.0414 54.4036C29.0402 54.9816 28.2195 54.5205 28.2162 53.3631C28.213 52.2193 29.0283 50.8004 30.0295 50.2224ZM36.7946 46.3166C37.8015 45.7353 38.6109 46.2161 38.6141 47.3599C38.6174 48.5173 37.8133 49.9164 36.8064 50.4978C35.8053 51.0758 34.9846 50.6147 34.9813 49.4573C34.9781 48.3135 35.7934 46.8946 36.7946 46.3166Z" fill="#06543C"/>
<path d="M23.2645 54.1282C24.2714 53.5469 25.0808 54.0277 25.084 55.1715C25.0873 56.3289 24.2832 57.728 23.2763 58.3094C22.2751 58.8874 21.4545 58.4263 21.4512 57.2689C21.4479 56.1251 22.2633 54.7062 23.2645 54.1282ZM30.0295 50.2224C31.0364 49.6411 31.8458 50.1219 31.8491 51.2657C31.8523 52.4231 31.0483 53.8222 30.0414 54.4036C29.0402 54.9816 28.2195 54.5205 28.2162 53.3631C28.213 52.2193 29.0283 50.8004 30.0295 50.2224ZM36.7946 46.3166C37.8015 45.7353 38.6109 46.2161 38.6141 47.3599C38.6174 48.5173 37.8133 49.9164 36.8064 50.4978C35.8053 51.0758 34.9846 50.6147 34.9813 49.4573C34.9781 48.3135 35.7934 46.8946 36.7946 46.3166Z" fill="#06543C"/>
<path d="M48.9508 14.9166C50.2958 14.1401 51.3819 14.7593 51.3863 16.297L51.4108 24.9511C51.4151 26.4888 50.3361 28.3656 48.9912 29.1421L20.2241 45.7507C18.886 46.5233 17.7931 45.9005 17.7887 44.3628L17.7642 35.7087C17.7598 34.171 18.8456 32.2979 20.1838 31.5253L48.9508 14.9166Z" fill="#32D583"/>
<path d="M51.4072 24.9514C51.4177 26.489 50.3329 28.3641 48.9953 29.1437L20.2214 45.7524C18.8838 46.5217 17.7887 45.9 17.7887 44.3623L17.7676 37.5694C21.2116 37.9376 25.0347 37.7165 28.9526 36.8001C41.1489 33.967 49.6165 25.478 47.8367 17.853C47.6788 17.1896 47.4576 16.5576 47.1522 15.9569L48.9531 14.9145C50.2907 14.1354 51.3861 14.7566 51.3861 16.2943L51.4072 24.9514Z" fill="#E9E9F4"/>
<path d="M2.06201 26.5904L2.09364 35.2372C2.09364 36.0066 2.36748 36.5434 2.79946 36.7965L18.4942 45.921C18.0622 45.668 17.7886 45.1311 17.7886 44.3623L17.7675 35.7046C17.7621 34.9409 18.028 34.0976 18.4597 33.3462L2.76604 24.2222C2.33123 24.9766 2.06201 25.8251 2.06201 26.5904Z" fill="#06543C"/>
<path d="M18.4932 45.9198L2.7959 36.7977C2.36395 36.5465 2.09267 36.004 2.09267 35.2406L2.0625 26.5899C2.0625 25.8266 2.33379 24.9725 2.76573 24.219L5.55879 25.8467C5.25733 26.8715 5.09667 27.936 5.09667 29.0413C5.09667 36.054 2.16708 36.1943 10.3253 36.1943C13.1384 36.1943 15.7706 35.5114 18.011 34.3355C17.8503 34.7976 17.7598 35.2602 17.7699 35.7017L17.79 44.3623C17.79 45.1359 18.0613 45.6686 18.4932 45.9198Z" fill="#06543C"/>
<path d="M34.9856 5.62125C34.5433 5.36823 33.9324 5.3996 33.2479 5.80021L4.48453 22.4094C3.81264 22.7956 3.20504 23.4611 2.76611 24.2222L18.4598 33.3462C18.8974 32.5841 19.5058 31.9161 20.1792 31.5237L48.9532 14.9145C49.6274 14.5247 50.238 14.4933 50.6806 14.7458L34.9856 5.62125Z" fill="#06543C"/>
<path d="M50.6807 14.7458C50.2382 14.4933 49.6275 14.5247 48.9533 14.9145L20.1794 31.5237C19.5055 31.9135 18.8945 32.5872 18.4628 33.3457L2.76807 24.2207C3.21033 23.4626 3.81074 22.7992 4.48468 22.4094L8.24473 20.2397C12.3627 24.6845 13.6438 25.379 21.9957 25.3791C33.3597 25.3791 39.3376 16.61 41.4229 9.36401L50.6807 14.7458Z" fill="#06543C"/>
<path d="M19.1369 46.4963C18.8343 46.4963 18.5509 46.4239 18.297 46.2781C17.7064 45.9384 17.3797 45.2588 17.3772 44.3641L17.3526 35.7096C17.348 34.0157 18.5016 32.0212 19.9784 31.1687L48.7451 14.5594C49.5297 14.105 50.2897 14.0417 50.8828 14.3855C51.4704 14.7233 51.7956 15.4018 51.7981 16.2955L51.8228 24.95C51.8278 26.6479 50.6747 28.6464 49.197 29.4989L20.4302 46.1072C19.9824 46.3656 19.5426 46.4963 19.1369 46.4963ZM49.1573 15.2731L20.39 31.8825C19.1862 32.5771 18.1724 34.3283 18.1759 35.7076L18.2005 44.3621C18.2025 44.9502 18.3825 45.3764 18.7077 45.5634C19.0359 45.7514 19.5008 45.6931 20.0181 45.3935L48.7853 28.7852C49.9896 28.0905 51.0035 26.3353 50.9994 24.952L50.9748 16.2975C50.9728 15.7104 50.7944 15.2852 50.4717 15.0992C50.146 14.9122 49.6795 14.9726 49.1573 15.2731Z" fill="#06543C"/>
<path d="M18.4939 46.3333C18.4236 46.3333 18.3527 46.3152 18.2874 46.277L2.59234 37.1521C2.00475 36.8073 1.68206 36.1277 1.68206 35.237L1.65039 26.5915C1.65039 25.7803 1.91981 24.8655 2.40938 24.016C2.46417 23.9215 2.55464 23.8521 2.6602 23.824C2.76525 23.7979 2.87885 23.8109 2.97335 23.8662L18.6668 32.9902C18.8629 33.1038 18.9297 33.3551 18.8166 33.5511C18.401 34.2749 18.1748 35.0379 18.1793 35.7014L18.2004 44.361C18.2004 44.9491 18.3788 45.3763 18.7025 45.5663C18.8986 45.6809 18.9644 45.9322 18.8498 46.1283C18.7734 46.2599 18.6357 46.3333 18.4939 46.3333ZM2.47372 26.5885L2.50539 35.236C2.50539 35.8231 2.68382 36.2513 3.00803 36.4413L17.4067 44.8123C17.3871 44.6696 17.3771 44.5188 17.3771 44.362L17.356 35.7055C17.3509 35.0138 17.546 34.2438 17.9099 33.5029L2.92962 24.7931C2.63406 25.4063 2.47422 26.0316 2.47372 26.5885Z" fill="#06543C"/>
<path d="M18.4599 33.7583C18.388 33.7583 18.3161 33.7392 18.2528 33.702L2.55928 24.5781C2.36325 24.4645 2.2964 24.2131 2.40949 24.0161C2.90409 23.1586 3.56808 22.4609 4.27932 22.0528L33.042 5.44347C33.8262 4.98406 34.5892 4.91771 35.1903 5.26453L35.1928 5.26554L50.8879 14.3895C51.0839 14.5031 51.1507 14.7544 51.0376 14.9505C50.9245 15.1475 50.6742 15.2148 50.4767 15.1033C50.1434 14.9133 49.676 14.9716 49.1593 15.2711L20.3855 31.8805C19.7964 32.2233 19.239 32.8164 18.8167 33.5512C18.7625 33.6467 18.672 33.7161 18.5664 33.7443C18.5312 33.7533 18.4956 33.7583 18.4599 33.7583ZM3.34089 24.0794L18.3206 32.7892C18.7831 32.0916 19.3596 31.5246 19.9723 31.1677L48.7471 14.5574C48.8914 14.4739 49.0351 14.4046 49.1769 14.3473L34.7807 5.97829C34.4459 5.78728 33.9769 5.85162 33.4562 6.15522L4.69048 22.7665C4.1984 23.049 3.72893 23.5074 3.34089 24.0794Z" fill="#06543C"/>
<path d="M23.2645 35.6692C24.2714 35.0879 25.0808 35.5687 25.084 36.7125C25.0873 37.8699 24.2832 39.269 23.2763 39.8504C22.2751 40.4284 21.4545 39.9673 21.4512 38.8099C21.4479 37.6661 22.2633 36.2473 23.2645 35.6692ZM30.0295 31.7634C31.0364 31.1821 31.8458 31.6629 31.8491 32.8067C31.8523 33.9641 31.0483 35.3632 30.0414 35.9446C29.0402 36.5226 28.2195 36.0615 28.2162 34.9041C28.213 33.7603 29.0283 32.3414 30.0295 31.7634ZM36.7946 27.8576C37.8015 27.2763 38.6109 27.7571 38.6141 28.9009C38.6174 30.0583 37.8133 31.4574 36.8064 32.0388C35.8053 32.6168 34.9846 32.1557 34.9813 30.9983C34.978 29.8545 35.7934 28.4356 36.7946 27.8576Z" fill="#06543C"/>
<path d="M23.2645 35.6692C24.2714 35.0879 25.0808 35.5687 25.084 36.7125C25.0873 37.8699 24.2832 39.269 23.2763 39.8504C22.2751 40.4284 21.4545 39.9673 21.4512 38.8099C21.4479 37.6661 22.2633 36.2473 23.2645 35.6692ZM30.0295 31.7634C31.0364 31.1821 31.8458 31.6629 31.8491 32.8067C31.8523 33.9641 31.0483 35.3632 30.0414 35.9446C29.0402 36.5226 28.2195 36.0615 28.2162 34.9041C28.213 33.7603 29.0283 32.3414 30.0295 31.7634ZM36.7946 27.8576C37.8015 27.2763 38.6109 27.7571 38.6141 28.9009C38.6174 30.0583 37.8133 31.4574 36.8064 32.0388C35.8053 32.6168 34.9846 32.1557 34.9813 30.9983C34.978 29.8545 35.7934 28.4356 36.7946 27.8576Z" fill="#06543C"/>
<path d="M54.2828 35.8308L66.8038 44.6698C68.0983 45.5837 68.3305 47.5747 67.2962 49.2481C66.2119 51.0023 64.1541 51.7303 62.6898 50.8849C62.6225 50.846 62.5576 50.8045 62.4952 50.7604L49.9741 41.9214C50.0365 41.9654 50.1014 42.007 50.1688 42.0459C51.6331 42.8913 53.6909 42.1632 54.7752 40.409C55.8095 38.7357 55.5773 36.7446 54.2828 35.8308Z" fill="#32D583"/>
<path d="M64.0268 51.6444C63.4859 51.6444 62.9577 51.5148 62.4837 51.2413C62.4083 51.1981 62.3329 51.1498 62.2605 51.0996L49.7447 42.2631C49.7422 42.2611 49.7402 42.2601 49.7382 42.2591L49.7372 42.2581L49.7362 42.2571C49.5507 42.1254 49.507 41.8691 49.6381 41.6831C49.7703 41.4991 50.0272 41.4559 50.2117 41.5846L50.2207 41.5916C50.271 41.6258 50.3222 41.6589 50.376 41.6901C51.6462 42.423 53.4612 41.7514 54.4248 40.1932C55.3306 38.7275 55.1652 36.9613 54.0488 36.1701L54.0458 36.1681C53.8598 36.0364 53.8156 35.78 53.9468 35.5941C54.078 35.4081 54.3363 35.3649 54.5203 35.4945L67.0411 44.333C68.5159 45.3745 68.7818 47.6283 67.6468 49.464C66.7943 50.8432 65.3714 51.6444 64.0268 51.6444ZM51.9076 42.7819L62.7325 50.424C62.7822 50.4582 62.8365 50.4944 62.8928 50.5266C64.1675 51.2624 65.9836 50.5899 66.9461 49.0317C67.8529 47.565 67.686 45.7967 66.5666 45.0065L55.7312 37.3573C55.9669 38.3787 55.7774 39.571 55.1255 40.6255C54.358 41.868 53.1275 42.6411 51.9076 42.7819Z" fill="#06543C"/>
<path d="M64.5999 43.1128L66.8041 44.6699C68.0986 45.5837 68.3307 47.5748 67.2965 49.2481C66.2122 51.0023 64.1544 51.7304 62.6901 50.885C62.6227 50.8461 62.5578 50.8045 62.4954 50.7605L60.2422 49.1735C60.3046 49.2176 60.5284 49.3209 60.5957 49.3598C62.06 50.2052 64.1178 49.4772 65.2021 47.723C66.2364 46.0497 65.8944 44.0266 64.5999 43.1128Z" fill="#06543C"/>
<path d="M64.0269 51.6444C63.486 51.6444 62.9578 51.5147 62.4838 51.2413C62.4084 51.1981 62.333 51.1498 62.2606 51.0996L60.0047 49.5102C60.0042 49.5102 60.0042 49.5092 60.0037 49.5092C59.8183 49.3775 59.7745 49.1211 59.9057 48.9362C60.0374 48.7502 60.2928 48.708 60.4792 48.8367L60.4802 48.8377C60.5124 48.8578 60.5888 48.894 60.6547 48.9271L60.7989 49.0015C62.0726 49.7374 63.8892 49.0649 64.8517 47.5067C65.7329 46.0822 65.5132 44.2626 64.3632 43.4493C64.1777 43.3176 64.1324 43.0603 64.2636 42.8753C64.3943 42.6893 64.6522 42.6461 64.8371 42.7758L67.0417 44.333C68.516 45.3745 68.7819 47.6283 67.6469 49.464C66.7944 50.8432 65.3715 51.6444 64.0269 51.6444ZM62.2752 50.1023L62.7326 50.424C62.7823 50.4582 62.8366 50.4944 62.8929 50.5265C64.1676 51.2624 65.9837 50.5899 66.9462 49.0317C67.853 47.565 67.6861 45.7967 66.5667 45.0065L66.1123 44.6858C66.3677 45.7122 66.1953 46.8995 65.5524 47.9389C64.7723 49.2016 63.5142 49.9797 62.2752 50.1023Z" fill="#06543C"/>
<path d="M54.9783 36.2467C56.4426 37.0921 56.7502 39.1955 55.6659 40.9498C54.5816 42.704 52.5238 43.432 51.0595 42.5866C49.6013 41.7447 49.2892 39.6485 50.3735 37.8943C51.4578 36.1401 53.5201 35.4048 54.9783 36.2467Z" fill="#32D583"/>
<path d="M52.3965 43.3468C51.8556 43.3468 51.3273 43.2172 50.8533 42.9437C50.1456 42.5346 49.6395 41.8449 49.4268 41.0025C49.1584 39.9369 49.3761 38.7245 50.023 37.678C51.2198 35.7398 53.5359 34.9386 55.1836 35.8896C55.8923 36.2988 56.4005 36.9894 56.6131 37.8339C56.8825 38.9025 56.6649 40.1179 56.016 41.1664C55.1635 42.5456 53.7415 43.3468 52.3965 43.3468ZM53.638 36.3088C52.5754 36.3088 51.4254 36.9753 50.7237 38.1103C50.1929 38.9698 50.0114 39.95 50.2255 40.8015C50.3854 41.4358 50.7448 41.9294 51.2655 42.23C52.5332 42.9648 54.3522 42.2933 55.3153 40.7341C55.8476 39.8726 56.0296 38.8894 55.8144 38.0349C55.6546 37.3996 55.2942 36.904 54.7719 36.6034C54.4256 36.4033 54.0381 36.3088 53.638 36.3088Z" fill="#06543C"/>
<path d="M59.5643 26.8428C57.8132 25.8248 55.38 25.9775 52.7024 27.525C47.388 30.5896 43.0919 38.0319 43.1124 44.1404C43.1226 47.1743 44.1917 49.3123 45.9224 50.3202L42.6094 48.4096C40.8787 47.4018 39.8096 45.2638 39.7994 42.2299C39.7789 36.1213 44.0751 28.679 49.3894 25.6145C52.0773 24.067 54.5002 23.9244 56.2513 24.9424L59.5643 26.8428Z" fill="#06543C"/>
<path d="M45.9221 50.7326C45.8523 50.7326 45.7819 50.7145 45.717 50.6773L42.4036 48.7663C40.4685 47.6393 39.3978 45.3191 39.3878 42.2309C39.3667 35.9981 43.7613 28.3841 49.1838 25.2577C51.9141 23.6864 54.4977 23.4461 56.4585 24.5861L59.7207 26.458C59.7378 26.468 59.7543 26.4771 59.7714 26.4871C59.9675 26.6007 60.0343 26.852 59.9207 27.0491C59.8081 27.2451 59.5578 27.3135 59.3593 27.1999L59.3135 27.1737C57.6236 26.2187 55.3527 26.468 52.9084 27.8815C47.7135 30.8772 43.5039 38.1706 43.524 44.1389C43.5336 46.9216 44.4579 48.9894 46.1282 49.9636L46.1297 49.9646C46.3262 50.0792 46.3926 50.3305 46.279 50.5265C46.2026 50.6582 46.0644 50.7326 45.9221 50.7326ZM53.7176 24.7007C52.4635 24.7007 51.0601 25.128 49.5949 25.9714C44.4006 28.9662 40.191 36.2595 40.2111 42.2289C40.2206 45.0125 41.1455 47.0814 42.8163 48.0535L43.6969 48.5612C43.0505 47.384 42.7062 45.8851 42.7007 44.1409C42.6796 37.9092 47.0742 30.2952 52.4967 27.1677C54.0348 26.279 55.5266 25.8136 56.8858 25.7804L56.0463 25.2989C55.3582 24.8998 54.5726 24.7007 53.7176 24.7007Z" fill="#06543C"/>
<path d="M52.7055 27.5202C58.0292 24.4465 62.3529 26.9103 62.3703 33.0201C62.3878 39.1299 58.0923 46.5702 52.7687 49.6439C47.4516 52.7139 43.1278 50.2501 43.1104 44.1403C43.093 38.0305 47.3884 30.5902 52.7055 27.5202Z" fill="#32D583"/>
<path d="M62.3745 33.0242C62.3848 39.1327 58.0886 46.5751 52.7641 49.6396C48.651 52.022 45.1182 51.0752 43.7437 47.6953C44.5684 47.8581 45.4237 47.9396 46.2993 47.9395C53.7515 47.9394 59.7988 41.8918 59.7987 34.4394C59.7986 31.3241 58.7502 28.4734 56.9784 26.1929C60.1652 26.1623 62.3642 28.6668 62.3745 33.0242Z" fill="#32D583"/>
<path d="M48.448 51.381C47.4588 51.381 46.5415 51.1488 45.7297 50.6813C43.784 49.5615 42.7073 47.2393 42.6988 44.141C42.6807 37.9102 47.0773 30.2942 52.4993 27.1637C55.2156 25.5955 57.7911 25.3522 59.7509 26.4801C61.6967 27.599 62.7728 29.9222 62.7819 33.0195C62.8 39.2492 58.4003 46.8673 52.9748 50.0008C51.386 50.9176 49.8449 51.381 48.448 51.381ZM57.0306 26.6058C55.7765 26.6058 54.3742 27.032 52.9115 27.8775C47.7172 30.8752 43.505 38.1706 43.5221 44.139C43.5302 46.9306 44.46 49.0005 46.1404 49.9676C47.8338 50.9437 50.1133 50.7025 52.5626 49.287C57.761 46.2852 61.9756 38.9889 61.9585 33.0215C61.9505 30.2298 61.0206 28.161 59.3403 27.1939C58.6572 26.8008 57.8776 26.6058 57.0306 26.6058Z" fill="#06543C"/>
<path d="M56.9406 31.7982C57.1707 31.6653 57.3559 31.7708 57.3566 32.0323L57.3787 39.7855C57.3795 40.0469 57.1955 40.3655 56.9655 40.4984L55.6155 41.2778C55.388 41.4092 55.2029 41.3036 55.2021 41.0422L55.18 33.289C55.1792 33.0276 55.3632 32.709 55.5907 32.5776L56.9406 31.7982ZM53.4087 36.5401C53.6363 36.4088 53.8214 36.5143 53.8222 36.7757L53.8395 41.8289C53.8402 42.0904 53.6563 42.409 53.4288 42.5404L52.0763 43.3213C51.8488 43.4526 51.6636 43.3471 51.6629 43.0857L51.6456 38.0324C51.6448 37.771 51.8287 37.4524 52.0563 37.321L53.4087 36.5401ZM49.8648 35.4216C50.0923 35.2903 50.2774 35.3958 50.2782 35.6572L50.3003 43.8724C50.3011 44.1338 50.1171 44.4524 49.8896 44.5838L48.5396 45.3633C48.3096 45.4961 48.1244 45.3905 48.1237 45.1291L48.1016 36.9139C48.1008 36.6525 48.2848 36.3339 48.5148 36.2011L49.8648 35.4216Z" fill="#06543C"/>
</svg>
